<?xml version="1.0" encoding="UTF-8"?> <svg xmlns="http://www.w3.org/2000/svg" width="1201" height="953" viewBox="0 0 1201 953" fill="none"> <path d="M258.764 893.163C262.705 876.269 252.204 859.379 235.31 855.439C218.416 851.498 201.527 861.999 197.586 878.892C193.646 895.786 204.146 912.676 221.04 916.616C237.934 920.557 254.823 910.056 258.764 893.163Z" fill="#F6463A"></path> <path d="M213.972 860.64H216.232V858.38H213.972V860.64Z" fill="#474646"></path> <path d="M213.972 846.949H216.232V844.689H213.972V846.949Z" fill="#474646"></path> <path d="M213.972 833.26H216.232V831H213.972V833.26Z" fill="#474646"></path> <path d="M201.57 860.64H203.83V858.38H201.57V860.64Z" fill="#474646"></path> <path d="M201.57 846.949H203.83V844.689H201.57V846.949Z" fill="#474646"></path> <path d="M201.57 833.26H203.83V831H201.57V833.26Z" fill="#474646"></path> <path d="M189.183 860.64H191.443V858.38H189.183V860.64Z" fill="#474646"></path> <path d="M189.183 846.949H191.443V844.689H189.183V846.949Z" fill="#474646"></path> <path d="M189.183 833.26H191.443V831H189.183V833.26Z" fill="#474646"></path> <path d="M176.781 860.64H179.041V858.38H176.781V860.64Z" fill="#474646"></path> <path d="M176.781 846.949H179.041V844.689H176.781V846.949Z" fill="#474646"></path> <path d="M176.781 833.26H179.041V831H176.781V833.26Z" fill="#474646"></path> <path d="M164.383 860.64H166.643V858.38H164.383V860.64Z" fill="#474646"></path> <path d="M164.383 846.949H166.643V844.689H164.383V846.949Z" fill="#474646"></path> <path d="M164.383 833.26H166.643V831H164.383V833.26Z" fill="#474646"></path> <path d="M151.992 860.64H154.252V858.38H151.992V860.64Z" fill="#474646"></path> <path d="M151.992 846.949H154.252V844.689H151.992V846.949Z" fill="#474646"></path> <path d="M151.992 833.26H154.252V831H151.992V833.26Z" fill="#474646"></path> <path d="M139.59 860.64H141.85V858.38H139.59V860.64Z" fill="#474646"></path> <path d="M139.59 846.949H141.85V844.689H139.59V846.949Z" fill="#474646"></path> <path d="M139.59 833.26H141.85V831H139.59V833.26Z" fill="#474646"></path> <path d="M127.191 860.64H129.451V858.38H127.191V860.64Z" fill="#474646"></path> <path d="M127.191 846.949H129.451V844.689H127.191V846.949Z" fill="#474646"></path> <path d="M127.191 833.26H129.451V831H127.191V833.26Z" fill="#474646"></path> <path d="M114.8 860.64H117.061V858.38H114.8V860.64Z" fill="#474646"></path> <path d="M114.8 846.949H117.061V844.689H114.8V846.949Z" fill="#474646"></path> <path d="M114.8 833.26H117.061V831H114.8V833.26Z" fill="#474646"></path> <path d="M102.402 860.64H104.662V858.38H102.402V860.64Z" fill="#474646"></path> <path d="M102.402 846.949H104.662V844.689H102.402V846.949Z" fill="#474646"></path> <path d="M102.402 833.26H104.662V831H102.402V833.26Z" fill="#474646"></path> <path d="M90 860.64H92.26V858.38H90V860.64Z" fill="#474646"></path> <path d="M90 846.949H92.26V844.689H90V846.949Z" fill="#474646"></path> <path d="M90 833.26H92.26V831H90V833.26Z" fill="#474646"></path> <path d="M227.5 206C270.302 206 305 171.302 305 128.5C305 85.6979 270.302 51 227.5 51C184.697 51 150 85.6979 150 128.5C150 171.302 184.697 206 227.5 206Z" stroke="#F6463A" stroke-miterlimit="10"></path> <path d="M212.88 191.152C218.21 168.299 204.006 145.452 181.152 140.12C158.299 134.79 135.452 148.995 130.12 171.848C124.79 194.701 138.995 217.548 161.848 222.88C184.701 228.21 207.548 214.006 212.88 191.152Z" fill="#474646"></path> <path d="M961.87 198.74C1016.47 198.74 1060.74 154.474 1060.74 99.87C1060.74 45.2656 1016.47 1 961.87 1C907.265 1 863 45.2656 863 99.87C863 154.474 907.265 198.74 961.87 198.74Z" stroke="#F6463A" stroke-miterlimit="10"></path> <path d="M1109.21 204.896C1112.34 185.535 1099.19 167.304 1079.82 164.175C1060.46 161.046 1042.23 174.204 1039.1 193.565C1035.97 212.926 1049.13 231.157 1068.49 234.286C1087.85 237.416 1106.09 224.257 1109.21 204.896Z" stroke="#474646" stroke-width="1.00285" stroke-miterlimit="10"></path> <path d="M1083.09 186.671C1087.54 167.626 1075.7 148.586 1056.65 144.143C1037.61 139.701 1018.57 151.539 1014.12 170.584C1009.68 189.629 1021.52 208.669 1040.57 213.112C1059.61 217.554 1078.65 205.717 1083.09 186.671Z" fill="#474646"></path> <path d="M1197.76 224.69C1199.25 224.69 1200.45 223.454 1200.45 221.93C1200.45 220.405 1199.25 219.17 1197.76 219.17C1196.27 219.17 1195.07 220.405 1195.07 221.93C1195.07 223.454 1196.27 224.69 1197.76 224.69Z" fill="#FF0000"></path> <path d="M1197.76 260.621C1197.21 260.637 1196.67 260.489 1196.2 260.195C1195.74 259.901 1195.37 259.475 1195.15 258.972C1194.93 258.468 1194.86 257.911 1194.96 257.37C1195.06 256.829 1195.32 256.33 1195.7 255.936C1196.08 255.542 1196.58 255.272 1197.11 255.16C1197.65 255.048 1198.21 255.099 1198.72 255.307C1199.23 255.515 1199.66 255.87 1199.97 256.327C1200.28 256.784 1200.44 257.322 1200.44 257.871C1200.44 258.591 1200.17 259.284 1199.67 259.8C1199.16 260.315 1198.48 260.611 1197.76 260.621Z" fill="#474646"></path> <path d="M1197.76 296.559C1199.25 296.559 1200.45 295.323 1200.45 293.799C1200.45 292.274 1199.25 291.039 1197.76 291.039C1196.27 291.039 1195.07 292.274 1195.07 293.799C1195.07 295.323 1196.27 296.559 1197.76 296.559Z" fill="#474646"></path> <path d="M1163.03 224.69C1164.51 224.69 1165.72 223.454 1165.72 221.93C1165.72 220.405 1164.51 219.17 1163.03 219.17C1161.54 219.17 1160.34 220.405 1160.34 221.93C1160.34 223.454 1161.54 224.69 1163.03 224.69Z" fill="#474646"></path> <path d="M1163.03 260.621C1162.48 260.635 1161.94 260.485 1161.48 260.19C1161.01 259.895 1160.65 259.468 1160.43 258.965C1160.21 258.461 1160.15 257.904 1160.24 257.364C1160.34 256.823 1160.6 256.325 1160.99 255.932C1161.37 255.54 1161.86 255.271 1162.4 255.159C1162.94 255.048 1163.5 255.1 1164.01 255.308C1164.51 255.517 1164.95 255.872 1165.25 256.328C1165.56 256.785 1165.72 257.322 1165.72 257.871C1165.72 258.229 1165.66 258.584 1165.53 258.916C1165.39 259.248 1165.2 259.551 1164.95 259.807C1164.7 260.062 1164.4 260.266 1164.07 260.406C1163.74 260.546 1163.39 260.619 1163.03 260.621Z" fill="#474646"></path> <path d="M1163.03 296.559C1164.51 296.559 1165.72 295.323 1165.72 293.799C1165.72 292.274 1164.51 291.039 1163.03 291.039C1161.54 291.039 1160.34 292.274 1160.34 293.799C1160.34 295.323 1161.54 296.559 1163.03 296.559Z" fill="#474646"></path> <path d="M1128.31 224.69C1129.79 224.69 1131 223.454 1131 221.93C1131 220.405 1129.79 219.17 1128.31 219.17C1126.82 219.17 1125.62 220.405 1125.62 221.93C1125.62 223.454 1126.82 224.69 1128.31 224.69Z" fill="#474646"></path> <path d="M1128.31 260.621C1127.76 260.635 1127.22 260.485 1126.76 260.19C1126.29 259.895 1125.93 259.468 1125.71 258.965C1125.49 258.461 1125.43 257.904 1125.53 257.364C1125.63 256.823 1125.88 256.325 1126.27 255.932C1126.65 255.54 1127.14 255.271 1127.68 255.159C1128.22 255.048 1128.78 255.1 1129.29 255.308C1129.8 255.517 1130.23 255.872 1130.53 256.328C1130.84 256.785 1131 257.322 1131 257.871C1131.01 258.229 1130.94 258.584 1130.81 258.916C1130.68 259.248 1130.48 259.551 1130.23 259.807C1129.98 260.062 1129.68 260.266 1129.35 260.406C1129.02 260.546 1128.67 260.619 1128.31 260.621Z" fill="#474646"></path> <path d="M1128.31 296.559C1129.79 296.559 1131 295.323 1131 293.799C1131 292.274 1129.79 291.039 1128.31 291.039C1126.82 291.039 1125.62 292.274 1125.62 293.799C1125.62 295.323 1126.82 296.559 1128.31 296.559Z" fill="#474646"></path> <path d="M1093.59 224.69C1095.07 224.69 1096.28 223.454 1096.28 221.93C1096.28 220.405 1095.07 219.17 1093.59 219.17C1092.1 219.17 1090.9 220.405 1090.9 221.93C1090.9 223.454 1092.1 224.69 1093.59 224.69Z" fill="#474646"></path> <path d="M1093.59 260.621C1093.04 260.637 1092.5 260.489 1092.03 260.195C1091.57 259.901 1091.2 259.475 1090.98 258.972C1090.76 258.468 1090.7 257.911 1090.79 257.37C1090.89 256.829 1091.15 256.33 1091.53 255.936C1091.92 255.542 1092.41 255.272 1092.95 255.16C1093.48 255.048 1094.04 255.099 1094.55 255.307C1095.06 255.515 1095.5 255.87 1095.8 256.327C1096.11 256.784 1096.27 257.322 1096.27 257.871C1096.28 258.591 1096 259.284 1095.5 259.8C1094.99 260.315 1094.31 260.611 1093.59 260.621Z" fill="#474646"></path> <path d="M1093.59 296.559C1095.07 296.559 1096.28 295.323 1096.28 293.799C1096.28 292.274 1095.07 291.039 1093.59 291.039C1092.1 291.039 1090.9 292.274 1090.9 293.799C1090.9 295.323 1092.1 296.559 1093.59 296.559Z" fill="#474646"></path> <path d="M695.379 408.876C761.33 400.521 807.677 337.57 798.898 268.27C790.119 198.971 729.538 149.567 663.587 157.921C597.635 166.276 551.288 229.227 560.067 298.527C568.846 367.826 629.427 417.231 695.379 408.876Z" fill="white" stroke="#474646" stroke-miterlimit="10"></path> <path d="M704.407 408.114C765.416 400.385 807.874 338.865 799.24 270.706C790.605 202.546 734.147 153.557 673.138 161.286C612.129 169.015 569.671 230.535 578.306 298.695C586.941 366.854 643.398 415.843 704.407 408.114Z" fill="white" stroke="#474646" stroke-miterlimit="10"></path> <path d="M701.067 384.483C751.024 377.923 785.256 324.881 777.526 266.012C769.796 207.142 723.03 164.736 673.073 171.296C623.115 177.856 588.884 230.898 596.614 289.768C604.344 348.638 651.109 391.043 701.067 384.483Z" fill="#474646"></path> <path d="M697.366 360.085C729.287 356.041 750.973 319.682 745.804 278.874C740.634 238.066 710.566 208.263 678.645 212.306C646.724 216.35 625.038 252.71 630.208 293.518C635.377 334.326 665.445 364.129 697.366 360.085Z" fill="white"></path> <path d="M696.329 332.753C715.066 329.233 726.355 305.619 721.544 280.011C716.733 254.402 697.643 236.495 678.906 240.016C660.169 243.536 648.88 267.149 653.691 292.758C658.502 318.367 677.591 336.273 696.329 332.753Z" fill="#474646"></path> <path d="M750.297 188.403L735.917 197.703L728.917 212.103L743.937 211.243L758.847 201.603L744.477 202.043L750.297 188.403Z" fill="white" stroke="#474646" stroke-miterlimit="10"></path> <path d="M704.175 229.544L728.915 212.104" stroke="#474646" stroke-miterlimit="10"></path> <path d="M706.985 232.345L701.565 224.685L698.645 231.685L706.985 232.345Z" fill="#474646"></path> <path d="M762.495 289.153L748.115 298.463L741.105 312.863L756.135 312.003L771.035 302.363L756.665 302.793L762.495 289.153Z" fill="white" stroke="#474646" stroke-miterlimit="10"></path> <path d="M716.374 330.304L741.104 312.864" stroke="#474646" stroke-miterlimit="10"></path> <path d="M719.175 333.104L713.755 325.444L710.835 332.434L719.175 333.104Z" fill="#474646"></path> <path d="M777.625 238.784L763.245 248.084L756.245 262.484L771.265 261.624L786.165 251.984L771.805 252.414L777.625 238.784Z" fill="white" stroke="#474646" stroke-miterlimit="10"></path> <path d="M731.507 279.923L756.247 262.483" stroke="#474646" stroke-miterlimit="10"></path> <path d="M734.317 282.723L728.897 275.063L725.977 282.053L734.317 282.723Z" fill="#474646"></path> <path d="M898.45 456.023C898.45 456.023 886.56 447.133 882.22 448.133C880.388 448.62 878.619 449.322 876.95 450.223L876.02 450.723C873.51 452.483 871.18 457.383 872.52 460.553C876.269 462.016 880.181 463.023 884.17 463.553C888.673 464.27 893.238 464.511 897.79 464.273L898.45 456.023Z" fill="white" stroke="#474646" stroke-linecap="round" stroke-linejoin="round"></path> <path d="M972.964 778.689C871.702 778.689 789.614 764.452 789.614 746.889C789.614 729.326 871.702 715.089 972.964 715.089C1074.22 715.089 1156.31 729.326 1156.31 746.889C1156.31 764.452 1074.22 778.689 972.964 778.689Z" fill="#EEEEEE"></path> <path d="M812.32 347.902C812.32 347.902 841.22 396.072 850.24 400.162C861.7 405.372 917.93 423.982 917.93 423.982L925.73 372.512C925.73 372.512 887.21 390.512 872.12 378.042C861.59 369.342 822.86 341.992 822.86 341.992" fill="white"></path> <path d="M812.32 347.902C812.32 347.902 841.22 396.072 850.24 400.162C861.7 405.372 917.93 423.982 917.93 423.982L925.73 372.512C925.73 372.512 887.21 390.512 872.12 378.042C861.59 369.342 822.86 341.992 822.86 341.992" stroke="#474646" stroke-miterlimit="10"></path> <path d="M941.621 503.443C941.621 503.443 935.711 661.213 967.351 727.043C966.686 728.985 965.544 730.728 964.028 732.112C962.513 733.496 960.674 734.476 958.681 734.963C951.741 736.723 990.911 735.473 993.171 728.763C993.171 728.763 1005.37 542.253 1013.59 519.183" fill="white"></path> <path d="M941.621 503.443C941.621 503.443 935.711 661.213 967.351 727.043C966.686 728.985 965.544 730.728 964.028 732.112C962.513 733.496 960.674 734.476 958.681 734.963C951.741 736.723 990.911 735.473 993.171 728.763C993.171 728.763 1005.37 542.253 1013.59 519.183" stroke="#474646" stroke-linecap="round" stroke-linejoin="round"></path> <path d="M1120.62 540.063C1120.62 540.063 1081.62 557.323 1043.21 573.403C1030.03 546.143 1018.84 521.693 1017.34 514.233C1017.34 514.233 982.121 488.173 961.031 533.303C961.031 533.303 1007.03 609.303 1009.26 613.383C1015.8 625.383 1027.54 633.503 1040.56 629.233C1047.98 626.803 1113.99 577.733 1128.56 558.143C1130.11 557.91 1131.69 558.068 1133.17 558.605C1134.64 559.141 1135.95 560.038 1136.99 561.213C1140.67 565.283 1125.96 539.223 1120.62 540.063Z" fill="white" stroke="#474646" stroke-linecap="round" stroke-linejoin="round"></path> <path d="M942.179 364.104C934.729 367.154 939.079 366.354 931.629 369.404C948.459 420.714 943.039 483.284 945.169 538.474L1015.71 535.594C1020.92 472.874 994.759 422.424 1014.41 364.094C1001 369.514 955.589 358.684 942.179 364.094" fill="#FF0000"></path> <path d="M942.179 364.104C934.729 367.154 939.079 366.354 931.629 369.404C948.459 420.714 943.039 483.284 945.169 538.474L1015.71 535.594C1020.92 472.874 994.759 422.424 1014.41 364.094C1001 369.514 955.589 358.684 942.179 364.094" stroke="#474646" stroke-miterlimit="10"></path> <path d="M1001.57 356.394C997.571 340.574 1001.57 303.674 1001.57 303.674C1002.88 300.586 1003.88 297.377 1004.57 294.094C1008.94 273.534 1000.31 254.284 985.301 251.094C970.291 247.904 954.581 261.974 950.211 282.534C945.841 303.094 971.461 325.904 972.421 325.904L972.201 326.074C971.681 360.504 943.871 363.424 943.871 363.424C954.591 389.244 1011.56 382.004 1011.56 382.004C1011.56 382.004 1005.53 372.204 1001.57 356.394Z" fill="white" stroke="#474646" stroke-linecap="round" stroke-linejoin="round"></path> <path d="M954.531 255.523C954.401 252.523 954.301 249.413 955.531 246.683C956.761 243.953 959.801 241.793 962.691 242.573C964.891 243.173 966.351 245.203 968.191 246.573C972.501 249.763 978.581 249.003 983.571 247.073C988.561 245.143 993.231 242.173 998.501 241.233C1003.77 240.293 1010.16 242.183 1012.03 247.233C1013.36 250.783 1012.1 254.943 1013.58 258.423C1014.83 261.353 1017.73 263.173 1019.85 265.553C1021.97 267.933 1023.18 271.943 1020.85 274.113C1019.22 275.633 1008.12 282.703 1006.11 281.753C1004.1 280.803 1007.2 276.703 1005.28 275.573C1001.97 273.573 1001.72 268.303 997.891 267.893C993.291 267.4 988.678 267.107 984.051 267.013C972.721 266.763 961.401 267.683 950.111 268.603C946.681 268.883 943.111 269.153 939.861 268.193C936.611 267.233 933.461 264.763 932.791 261.383C931.911 257.003 935.471 252.713 939.671 251.183C943.871 249.653 948.501 250.183 952.941 250.723" fill="#474646"></path> <path d="M985.668 267.003C985.668 267.003 998.508 287.303 996.478 298.733C996.478 298.733 1002.14 267.113 1007.78 265.643" fill="#474646"></path> <path d="M963.868 510.313C961.748 500.313 957.478 490.983 954.348 481.313C941.528 441.553 949.288 399.963 956.258 358.773C943.398 365.383 928.398 366.003 920.838 378.323C917.168 384.323 912.198 395.063 910.508 401.893C904.798 425.043 902.418 449.263 906.188 472.803C909.388 492.693 916.868 511.603 924.298 530.323C926.298 535.323 928.988 540.963 934.218 542.173C936.058 542.488 937.938 542.488 939.778 542.173L960.318 539.923C965.748 531.283 965.998 520.273 963.868 510.313Z" fill="white" stroke="#474646" stroke-miterlimit="10"></path> <path d="M989.401 506.394C991.531 496.394 995.801 487.064 998.921 477.394C1011.74 437.634 1008.46 393.394 1001.49 352.184C1014.34 358.794 1027.83 365.974 1035.38 378.304C1039.06 384.304 1041.07 391.154 1042.76 397.974C1048.47 421.124 1050.86 445.344 1047.08 468.884C1043.88 488.774 1036.4 507.684 1028.98 526.414C1026.98 531.414 1024.28 537.054 1019.05 538.254C1017.21 538.564 1015.33 538.564 1013.49 538.254L992.951 536.004C987.521 527.374 987.271 516.364 989.401 506.394Z" fill="white" stroke="#474646" stroke-miterlimit="10"></path> <path d="M966.72 727.594C966.72 727.594 920.58 721.684 923.72 736.234C926.86 750.784 987.92 743.474 990.53 740.334C993.14 737.194 992.53 729.334 992.53 729.334L966.72 727.594Z" fill="white" stroke="#474646" stroke-linecap="round" stroke-linejoin="round"></path> <path d="M947.18 727.123C948.507 729.712 949.473 732.471 950.05 735.323L947.18 727.123Z" fill="white"></path> <path d="M947.18 727.123C948.507 729.712 949.473 732.471 950.05 735.323" stroke="#474646" stroke-linecap="round" stroke-linejoin="round"></path> <path d="M953.238 727.123C954.566 729.712 955.532 732.471 956.108 735.323L953.238 727.123Z" fill="white"></path> <path d="M953.238 727.123C954.566 729.712 955.532 732.471 956.108 735.323" stroke="#474646" stroke-linecap="round" stroke-linejoin="round"></path> <path d="M959.598 727.123C960.921 729.714 961.886 732.472 962.468 735.323L959.598 727.123Z" fill="white"></path> <path d="M959.598 727.123C960.921 729.714 961.886 732.472 962.468 735.323" stroke="#474646" stroke-linecap="round" stroke-linejoin="round"></path> <path d="M1128.5 566.232C1128.5 566.232 1153.22 605.642 1162.5 593.992C1171.78 582.342 1127.36 539.782 1123.28 539.752C1119.2 539.722 1113.47 545.182 1113.47 545.182L1128.5 566.232Z" fill="white" stroke="#474646" stroke-linecap="round" stroke-linejoin="round"></path> <path d="M1140.55 581.623C1141.71 578.957 1143.23 576.46 1145.06 574.203L1140.55 581.623Z" fill="white"></path> <path d="M1140.55 581.623C1141.71 578.957 1143.23 576.46 1145.06 574.203" stroke="#474646" stroke-linecap="round" stroke-linejoin="round"></path> <path d="M1136.71 576.902C1137.87 574.234 1139.38 571.737 1141.22 569.482L1136.71 576.902Z" fill="white"></path> <path d="M1136.71 576.902C1137.87 574.234 1139.38 571.737 1141.22 569.482" stroke="#474646" stroke-linecap="round" stroke-linejoin="round"></path> <path d="M1132.67 572.033C1133.83 569.366 1135.34 566.869 1137.18 564.613L1132.67 572.033Z" fill="white"></path> <path d="M1132.67 572.033C1133.83 569.366 1135.34 566.869 1137.18 564.613" stroke="#474646" stroke-linecap="round" stroke-linejoin="round"></path> <path d="M898.239 456.183C898.379 456.183 960.239 452.623 974.559 445.423C985.809 439.753 1025.56 390.283 1025.56 390.283C1025.56 390.283 1031.65 379.733 1036.94 383.953C1045.85 391.053 1049.72 418.603 1045.04 428.453C1036.73 445.973 990.899 471.183 983.599 472.633C955.599 478.183 897.599 464.433 897.539 464.413" fill="white"></path> <path d="M898.239 456.183C898.379 456.183 960.239 452.623 974.559 445.423C985.809 439.753 1025.56 390.283 1025.56 390.283C1025.56 390.283 1031.65 379.733 1036.94 383.953C1045.85 391.053 1049.72 418.603 1045.04 428.453C1036.73 445.973 990.899 471.183 983.599 472.633C955.599 478.183 897.599 464.433 897.539 464.413" stroke="#474646" stroke-miterlimit="10"></path> <path d="M823.869 344.623C822.869 341.623 815.979 325.943 807.219 328.683C804.219 328.923 799.669 331.973 799.219 335.383C803.329 340.953 812.609 348.163 819.129 351.383L823.869 344.623Z" fill="white" stroke="#474646" stroke-linecap="round" stroke-linejoin="round"></path> <path d="M845.029 329.973L827.909 329.623L814.039 337.633L826.969 345.333L844.709 345.703L832.569 338.013L845.029 329.973Z" fill="white" stroke="#474646" stroke-miterlimit="10"></path> <path d="M783.781 338.223L814.041 337.633" stroke="#474646" stroke-miterlimit="10"></path> <path d="M784.54 342.102L784.33 332.732L778 336.882L784.54 342.102Z" fill="#474646"></path> <path d="M493.35 656.069C392.088 656.069 310 641.832 310 624.269C310 606.706 392.088 592.469 493.35 592.469C594.611 592.469 676.7 606.706 676.7 624.269C676.7 641.832 594.611 656.069 493.35 656.069Z" fill="#EEEEEE"></path> <path d="M461.221 286.47L461.602 258.42C461.602 258.42 472.532 261.3 478.102 276.64C486.152 298.77 501.221 328.64 501.221 328.64C503.561 332.64 517.612 353.29 520.272 363.34C521.892 369.48 531.042 397.81 533.182 402.6C534.992 404.43 541.462 412.24 542.262 415.91C542.732 418.08 543.502 423.47 537.502 425.29C534.722 426.13 531.762 425.86 530.502 423.22C529.566 421.129 528.751 418.985 528.062 416.8C528.445 418.493 528.207 420.268 527.392 421.8C526.982 422.71 526.112 422.64 525.392 422.03C524.952 421.66 524.392 408.67 523.562 405.62C522.632 402.39 501.772 368.94 498.272 364.25C495.018 360.042 492.013 355.648 489.272 351.09C488.792 350.37 488.372 349.71 488.002 349.09C488 349.067 488 349.044 488.002 349.02C485.862 345.39 485.201 342.61 482.451 333.32C478.181 318.97 461.221 286.47 461.221 286.47Z" fill="white" stroke="#474646" stroke-linecap="round" stroke-linejoin="round"></path> <path d="M437.1 470.128C439.25 491.788 449.31 622.799 449.31 622.799C450.73 627.509 475.38 628.389 471.01 627.159C469.713 626.75 468.537 626.028 467.587 625.057C466.636 624.085 465.94 622.894 465.56 621.589C485.47 575.329 486.94 410.989 473.56 409.589C460.18 408.189 398.88 383.589 396.78 402.899C388.17 481.989 397.4 619.508 397.4 619.508C398.83 624.219 431.17 625.099 426.81 623.869C422.45 622.639 413.65 618.299 413.65 618.299C433.56 572.039 437.54 461.169 437.54 461.169" fill="white"></path> <path d="M437.1 470.128C439.25 491.788 449.31 622.799 449.31 622.799C450.73 627.509 475.38 628.389 471.01 627.159C469.713 626.75 468.537 626.028 467.587 625.057C466.636 624.085 465.94 622.894 465.56 621.589C485.47 575.329 486.94 410.989 473.56 409.589C460.18 408.189 398.88 383.589 396.78 402.899C388.17 481.989 397.4 619.508 397.4 619.508C398.83 624.218 431.17 625.099 426.81 623.869C422.45 622.639 413.65 618.299 413.65 618.299C433.56 572.039 437.54 461.169 437.54 461.169" stroke="#474646" stroke-linecap="round" stroke-linejoin="round"></path> <path d="M465.951 621.968C465.951 621.968 494.952 617.818 493.022 628.038C491.092 638.258 452.632 633.128 451.022 630.928C449.412 628.728 449.742 623.178 449.742 623.178L465.951 621.968Z" fill="white" stroke="#474646" stroke-linecap="round" stroke-linejoin="round"></path> <path d="M478.251 621.648C477.408 623.484 476.8 625.419 476.44 627.408L478.251 621.648Z" fill="white"></path> <path d="M478.251 621.648C477.408 623.484 476.8 625.419 476.44 627.408" stroke="#474646" stroke-linecap="round" stroke-linejoin="round"></path> <path d="M474.442 621.648C473.6 623.484 472.992 625.419 472.632 627.408L474.442 621.648Z" fill="white"></path> <path d="M474.442 621.648C473.6 623.484 472.992 625.419 472.632 627.408" stroke="#474646" stroke-linecap="round" stroke-linejoin="round"></path> <path d="M470.442 621.648C469.6 623.484 468.992 625.419 468.632 627.408L470.442 621.648Z" fill="white"></path> <path d="M470.442 621.648C469.6 623.484 468.992 625.419 468.632 627.408" stroke="#474646" stroke-linecap="round" stroke-linejoin="round"></path> <path d="M413.031 618.839C413.031 618.839 442.031 614.689 440.091 624.909C438.151 635.129 399.701 629.999 398.091 627.799C396.481 625.599 396.811 620.049 396.811 620.049L413.031 618.839Z" fill="white" stroke="#474646" stroke-linecap="round" stroke-linejoin="round"></path> <path d="M425.321 618.51C424.478 620.347 423.87 622.282 423.511 624.27L425.321 618.51Z" fill="white"></path> <path d="M425.321 618.51C424.478 620.347 423.87 622.282 423.511 624.27" stroke="#474646" stroke-linecap="round" stroke-linejoin="round"></path> <path d="M421.512 618.51C420.67 620.346 420.065 622.281 419.712 624.27L421.512 618.51Z" fill="white"></path> <path d="M421.512 618.51C420.67 620.346 420.065 622.281 419.712 624.27" stroke="#474646" stroke-linecap="round" stroke-linejoin="round"></path> <path d="M417.512 618.51C416.67 620.346 416.065 622.281 415.712 624.27L417.512 618.51Z" fill="white"></path> <path d="M417.512 618.51C416.67 620.346 416.065 622.281 415.712 624.27" stroke="#474646" stroke-linecap="round" stroke-linejoin="round"></path> <path d="M462.492 253.369C462.492 253.369 472.722 253.059 480.682 258.189C486.592 261.999 490.832 272.189 494.732 281.529C499.302 292.529 506.852 316.529 506.852 316.529C506.852 316.529 495.112 336.529 476.182 338.429L456.472 292.229L462.492 253.369Z" fill="#FF0000" stroke="#474646" stroke-miterlimit="10"></path> <path d="M390.733 297.488C403.083 368.258 391.943 418.308 391.943 418.308C405.383 429.488 467.143 447.308 481.663 414.158C470.583 382.048 484.833 329.238 481.233 288.428C479.653 270.428 480.863 253.118 451.853 251.918C422.843 250.718 404.173 261.378 404.173 261.378C395.543 269.718 388.813 286.718 390.733 297.488Z" fill="#FF0000" stroke="#474646" stroke-miterlimit="10"></path> <path d="M365.962 256.478C363.772 253.128 364.412 244.758 367.442 236.368C370.472 227.978 376.572 222.298 380.722 227.038C384.872 231.778 381.782 246.648 378.252 251.318C374.722 255.988 369.172 261.368 365.962 256.478Z" fill="#FF0000" stroke="#474646" stroke-miterlimit="10"></path> <path d="M349.602 128.04C351.162 128.39 350.852 128.84 351.702 136.7C352.492 143.93 353.022 149.7 354.042 150.79C355.482 152.31 357.702 143.57 359.242 143.85C361.062 144.18 360.572 145.36 359.932 149.13C359.452 151.99 358.982 159 356.932 164.47C356.132 166.6 357.642 173.84 359.592 179.63C366.822 201.08 373.592 222.69 373.592 222.69C373.592 222.69 381.982 235.27 395.542 256.39C401.782 266.1 404.992 259.3 404.992 259.3C408.992 269.78 410.272 295.12 395.412 296.24C394.772 286.62 377.532 272.66 365.312 253.83C356.752 240.64 355.692 238.93 354.212 232.73C349.932 214.73 348.212 212.26 347.412 197.02C346.542 179.41 346.252 176.34 345.662 164.94C345.322 158.44 338.582 154.94 338.332 149.8C338.262 148.35 339.062 142.47 342.592 141.62C345.472 140.94 348.592 142.54 348.342 135.95C348.052 130.27 347.812 127.64 349.602 128.04Z" fill="white" stroke="#474646" stroke-miterlimit="10"></path> <path d="M409.243 259.799C406.303 257.799 404.443 255.949 400.163 251.799C395.883 247.649 381.543 228.359 381.543 228.359C381.543 228.359 382.723 235.559 378.143 245.719C372.283 258.719 366.563 257.129 366.563 257.129C366.563 257.129 375.743 270.299 380.803 278.649C385.183 285.879 391.033 294.989 391.273 300.999C393.573 303.709 400.653 299.799 406.913 288.239C413.673 275.719 409.243 259.799 409.243 259.799Z" fill="#FF0000" stroke="#474646" stroke-miterlimit="10"></path> <path d="M449.283 201.349C446.753 203.349 443.543 205.449 440.433 205.949C437.613 206.409 435.093 208.079 432.283 208.799C426.283 210.329 430.133 243.519 424.613 240.379C422.553 233.179 413.613 200.109 405.683 182.379C401.253 172.499 405.133 162.179 413.683 159.589C413.263 159.719 414.823 154.279 415.103 153.809C416.349 151.865 418.008 150.219 419.963 148.989C423.946 146.377 428.495 144.755 433.233 144.259C437.814 143.559 442.469 143.479 447.073 144.019C451.953 144.729 456.663 145.579 461.203 142.839C465.013 140.539 464.293 149.999 462.683 151.839C464.443 151.909 465.073 148.539 466.443 148.139C467.813 147.739 468.583 150.299 468.703 151.389C469.223 156.309 469.283 159.499 466.913 163.599C470.483 165.939 468.913 170.239 466.743 173.049C464.123 176.429 463.163 181.049 461.333 185.049C458.443 191.399 454.503 197.219 449.283 201.349Z" fill="#474646"></path> <path d="M430.063 169.308C433.383 174.248 434.543 191.888 434.883 207.888C434.039 208.251 433.17 208.555 432.283 208.798C426.283 210.328 430.133 243.518 424.613 240.378C422.553 233.178 417.073 204.438 415.213 185.088C414.273 175.268 405.133 162.168 413.673 159.578C416.968 159.836 420.159 160.848 423.001 162.535C425.843 164.222 428.259 166.539 430.063 169.308Z" fill="#474646"></path> <path d="M430.063 169.308C428.993 175.228 424.903 180.308 419.753 182.198C420.813 186.968 421.883 191.848 421.463 196.738C421.411 197.771 421.174 198.787 420.763 199.738C420.573 200.195 420.281 200.603 419.911 200.932C419.54 201.261 419.1 201.502 418.623 201.638C417.373 201.888 416.773 201.098 416.283 200.048C415.591 198.713 414.82 197.42 413.973 196.178C413.608 195.649 413.182 195.166 412.703 194.738C410.593 192.988 418.543 206.538 420.513 210.458C434.513 238.278 425.393 256.288 425.393 256.288C435.973 267.658 457.503 263.798 452.283 257.288L449.003 227.358C449.003 227.358 455.223 227.718 458.583 226.588C464.173 224.698 468.733 206.188 469.663 199.018C471.583 184.288 468.323 174.178 463.563 164.908C454.173 176.098 441.813 169.478 430.063 169.308Z" fill="white" stroke="#474646" stroke-miterlimit="10"></path> <path d="M788.35 894.6C687.088 894.6 605 880.363 605 862.8C605 845.237 687.088 831 788.35 831C889.611 831 971.7 845.237 971.7 862.8C971.7 880.363 889.611 894.6 788.35 894.6Z" fill="#EEEEEE"></path> <path d="M714.849 599.708C714.919 599.648 745.659 570.531 749.95 560.469C753.335 552.552 752.314 509.205 752.314 509.205C752.314 509.205 750.841 501.013 755.468 500.887C763.239 500.664 777.395 513.342 779.298 520.55C782.68 533.359 769.858 566.711 766.685 570.682C754.487 585.957 718.196 604.259 718.129 604.299" fill="white"></path> <path d="M714.849 599.708C714.919 599.648 745.659 570.531 749.95 560.469C753.335 552.552 752.314 509.205 752.314 509.205C752.314 509.205 750.841 501.013 755.468 500.887C763.239 500.664 777.395 513.342 779.298 520.55C782.68 533.359 769.858 566.711 766.685 570.682C754.487 585.957 718.196 604.259 718.129 604.299" stroke="#474646" stroke-linecap="round" stroke-linejoin="round"></path> <path d="M714.877 599.531C714.877 599.531 704.757 600.13 702.934 602.554C702.191 603.615 701.577 604.762 701.106 605.969L700.836 606.646C700.303 608.667 701.251 612.26 703.34 613.321C705.937 612.428 708.419 611.228 710.732 609.747C713.398 608.138 715.887 606.252 718.157 604.122L714.877 599.531Z" fill="white" stroke="#474646" stroke-linecap="round" stroke-linejoin="round"></path> <path d="M849.875 504.637C841.725 497.267 826.315 487.407 821.615 477.177C817.275 467.707 824.735 454.907 825.475 445.107C826.475 432.177 823.685 424.327 815.265 414.807C811.115 410.107 807.315 407.167 803.355 405.457C798.865 401.047 795.925 396.687 789.705 393.907C778.385 388.857 762.485 390.207 753.545 399.377C735.795 417.597 744.195 446.817 742.885 468.677C741.935 484.677 725.725 500.677 739.115 513.997C746.635 521.457 757.345 523.997 764.565 532.087C770.175 538.347 770.915 546.187 774.775 553.297C779.395 561.797 793.325 590.847 804.635 584.817C816.495 578.487 815.775 553.727 829.635 553.867C839.895 553.977 851.375 560.337 860.375 553.787C866.135 549.597 868.625 542.787 869.295 536.037C870.675 521.687 859.625 513.457 849.875 504.637Z" fill="#474646"></path> <path d="M720.404 815.396C719.122 822.075 718.39 828.847 718.214 835.646C718.214 835.646 715.554 839.286 711.214 839.116C706.874 838.946 729.034 845.476 732.144 841.586C732.144 841.586 735.034 833.836 739.924 824.056" fill="white"></path> <path d="M720.404 815.396C719.122 822.075 718.39 828.847 718.214 835.646C718.214 835.646 715.554 839.286 711.214 839.116C706.874 838.946 729.034 845.476 732.144 841.586C732.144 841.586 735.034 833.836 739.924 824.056" stroke="#474646" stroke-linecap="round" stroke-linejoin="round"></path> <path d="M711.243 839.116C711.243 839.116 683.113 832.976 686.243 841.526C689.373 850.076 719.243 853.836 719.243 853.836L713.573 861.106L720.573 865.706L732.223 841.586C725.142 842.922 717.821 842.061 711.243 839.116Z" fill="#FF0000" stroke="#474646" stroke-miterlimit="10"></path> <path d="M825.696 823.927C830.779 828.449 836.227 832.543 841.986 836.167C841.986 836.167 843.746 840.327 841.376 843.977C839.006 847.627 855.956 831.927 854.246 827.267C854.246 827.267 849.066 820.817 843.166 811.607" fill="white"></path> <path d="M825.696 823.927C830.779 828.449 836.227 832.543 841.986 836.167C841.986 836.167 843.746 840.327 841.376 843.977C839.006 847.627 855.956 831.927 854.246 827.267C854.246 827.267 849.066 820.817 843.166 811.607" stroke="#474646" stroke-linecap="round" stroke-linejoin="round"></path> <path d="M841.373 843.988C841.373 843.988 821.703 864.988 830.643 866.698C839.583 868.408 858.103 844.698 858.103 844.698L861.443 853.288L868.963 849.648L854.243 827.268C851.752 834.02 847.262 839.852 841.373 843.988Z" fill="#FF0000" stroke="#474646" stroke-miterlimit="10"></path> <path d="M757.354 653.637C758.274 672.717 763.984 685.257 768.134 696.127C789.734 752.707 805.394 806.367 814.544 821.767C824.544 838.607 854.054 808.347 854.054 808.347C854.054 808.347 813.344 639.667 803.964 628.837C794.584 618.007 756.624 638.327 757.354 653.637Z" fill="#FF0000" stroke="#474646" stroke-miterlimit="10"></path> <path d="M758.825 644.847C748.135 660.677 745.215 674.147 742.035 685.337C725.475 743.597 717.135 788.337 715.245 806.127C713.185 825.607 743.715 826.667 743.715 826.667C743.715 826.667 812.035 667.167 811.005 652.867C809.975 638.567 767.395 632.147 758.825 644.847Z" fill="#FF0000" stroke="#474646" stroke-miterlimit="10"></path> <path d="M743.804 648.927C757.114 578.707 729.314 560.767 750.594 525.117C754.994 517.747 760.094 491.677 770.854 492.577C775.144 491.647 781.244 483.677 782.914 487.737C787.804 499.557 806.494 499.897 806.684 500.217C823.174 524.777 811.014 591.807 830.234 660.707C835.594 679.927 740.804 664.727 743.804 648.927Z" fill="white" stroke="#474646" stroke-linecap="round" stroke-linejoin="round"></path> <path d="M794.564 488.357C790.094 478.147 796.984 448.537 796.984 448.537C797.541 446.309 797.876 444.031 797.984 441.737C798.594 427.397 789.924 418.667 780.124 414.967C771.284 411.627 760.474 426.307 756.394 442.587C752.904 456.507 767.394 466.457 777.914 466.907C778.581 466.928 779.249 466.908 779.914 466.847L779.784 466.977C783.344 490.227 768.204 493.587 768.204 493.587C778.364 509.757 806.744 500.187 806.744 500.187C806.744 500.187 799.024 498.557 794.564 488.357Z" fill="white" stroke="#474646" stroke-linecap="round" stroke-linejoin="round"></path> <path d="M745.967 616.365C746.031 616.301 774.009 584.522 777.375 574.114C780.019 565.916 775.075 522.84 775.075 522.84C775.075 522.84 772.87 514.814 777.463 514.277C785.193 513.353 800.43 524.694 802.983 531.7C807.528 544.174 797.745 578.536 794.936 582.789C784.174 599.076 749.692 620.62 749.621 620.663" fill="white"></path> <path d="M745.967 616.365C746.031 616.301 774.009 584.522 777.375 574.114C780.019 565.916 775.075 522.84 775.075 522.84C775.075 522.84 772.87 514.814 777.463 514.277C785.193 513.353 800.43 524.694 802.983 531.7C807.528 544.174 797.745 578.536 794.936 582.789C784.174 599.076 749.692 620.62 749.621 620.663" stroke="#474646" stroke-linecap="round" stroke-linejoin="round"></path> <path d="M745.986 616.19C745.986 616.19 735.961 617.701 734.357 620.292C733.715 621.413 733.209 622.608 732.852 623.851C732.768 624.077 732.706 624.311 732.644 624.545C732.296 626.605 733.562 630.09 735.738 630.961C738.252 629.824 740.617 628.385 742.783 626.675C745.291 624.832 747.601 622.733 749.674 620.41L745.986 616.19Z" fill="white" stroke="#474646" stroke-linecap="round" stroke-linejoin="round"></path> <path d="M348.35 811.6C247.088 811.6 165 797.363 165 779.8C165 762.237 247.088 748 348.35 748C449.611 748 531.7 762.237 531.7 779.8C531.7 797.363 449.611 811.6 348.35 811.6Z" fill="#EEEEEE"></path> <path d="M157.757 365.91L185.217 335.33C316.537 436.72 250.637 490.16 250.637 490.16C250.637 490.16 204.637 561.43 89.6367 441.77L117.097 411.19C117.097 411.19 185.307 484.61 210.897 454.51C238.047 425.83 157.757 365.91 157.757 365.91Z" fill="white" stroke="#474646" stroke-miterlimit="10"></path> <path d="M157.707 365.91L167.317 373.49L195.267 343.34L185.277 335.211L157.707 365.91Z" fill="#474646"></path> <path d="M117.138 411.102L125.718 419.832L98.7381 450.862L89.5781 441.802L117.138 411.102Z" fill="#FF0000"></path> <path d="M273.238 611.031C273.238 611.031 271.238 719.451 289.958 762.851C289.958 762.851 289.018 767.171 285.058 768.751C281.098 770.331 303.528 767.351 304.758 762.641C304.758 762.641 310.098 634.191 314.598 617.931" fill="white"></path> <path d="M273.238 611.031C273.238 611.031 271.238 719.451 289.958 762.851C289.958 762.851 289.018 767.171 285.058 768.751C281.098 770.331 303.528 767.351 304.758 762.641C304.758 762.641 310.098 634.191 314.598 617.931" stroke="#474646" stroke-linecap="round" stroke-linejoin="round"></path> <path d="M325.125 616.561C325.125 616.561 311.675 697.111 413.265 731.971C413.265 731.971 413.265 741.211 412.615 745.131C412.615 745.131 425.085 730.811 421.825 726.241C421.825 726.241 362.195 662.581 363.365 626.081" fill="white"></path> <path d="M325.125 616.561C325.125 616.561 311.675 697.111 413.265 731.971C413.265 731.971 413.265 741.211 412.615 745.131C412.615 745.131 425.085 730.811 421.825 726.241C421.825 726.241 362.195 662.581 363.365 626.081" stroke="#474646" stroke-linecap="round" stroke-linejoin="round"></path> <path d="M294.908 429.27C308.418 462.49 356.908 518.74 408.908 516.27C460.908 513.8 468.828 463.98 451.998 455.45C435.168 446.92 378.098 411.36 380.998 376.88C383.898 342.4 356.789 326.78 337.569 332.52C318.349 338.26 308.308 342.67 309.698 360.09C311.088 377.51 319.698 383.95 310.498 393.87C301.298 403.79 281.838 397.1 294.908 429.27Z" fill="#474646"></path> <path d="M350.218 419.66C347.008 408.87 357.588 380.03 357.588 380.03C358.409 377.861 359.015 375.617 359.398 373.33C361.788 359.02 355.248 346.01 344.798 344.26C334.348 342.51 323.938 352.7 321.558 367.01C319.178 381.32 325.698 394.33 336.148 396.08C336.81 396.188 337.478 396.251 338.148 396.27L337.998 396.38C338.688 420.14 319.598 423.01 319.598 423.01C327.778 440.48 366.848 433.76 366.848 433.76C366.848 433.76 353.428 430.48 350.218 419.66Z" fill="white" stroke="#474646" stroke-linecap="round" stroke-linejoin="round"></path> <path d="M222.848 361.83C222.848 361.83 247.928 421.83 255.648 429.08C265.458 438.29 314.108 455 314.108 455L319.618 424.77C319.618 424.77 283.968 434.92 270.998 416.91C261.998 404.34 231.768 359.07 231.768 359.07" fill="#FF0000"></path> <path d="M222.848 361.83C222.848 361.83 247.928 421.83 255.648 429.08C265.458 438.29 314.108 455 314.108 455L319.618 424.77C319.618 424.77 283.968 434.92 270.998 416.91C261.998 404.34 231.768 359.07 231.768 359.07" stroke="#474646" stroke-miterlimit="10"></path> <path d="M295.977 527.48C295.977 527.48 272.658 609.69 247.278 626.7C247.278 626.7 354.608 656.32 395.278 643.61C395.278 643.61 357.218 538.61 362.998 530.83L295.977 527.48Z" fill="white" stroke="#474646" stroke-miterlimit="10"></path> <path d="M320.665 423.25C320.665 423.25 308.105 449.69 303.825 473.14C299.545 496.59 293.535 532.9 296.825 537.47C300.115 542.04 361.325 548.24 361.325 548.24C361.325 548.24 367.195 500.98 370.715 485.6C382.005 436.23 364.275 433.17 364.275 433.17C364.275 433.17 327.685 438.79 320.665 423.25Z" fill="#FF0000" stroke="#474646" stroke-miterlimit="10"></path> <path d="M232.548 359.121C232.548 359.121 226.978 348.631 222.778 348.841C218.578 349.051 206.888 353.721 207.238 357.571C207.588 361.421 218.628 357.721 219.238 359.661C219.808 361.441 225.128 365.811 227.918 367.221L232.548 359.121Z" fill="white" stroke="#474646" stroke-linecap="round" stroke-linejoin="round"></path> <path d="M264.056 467.79C264.156 467.79 306.686 472.42 317.246 469.14C325.556 466.56 358.246 437.4 358.246 437.4C358.246 437.4 363.596 430.91 366.716 434.4C371.976 440.25 371.476 459.4 367.176 465.62C359.526 476.62 325.456 488.56 320.316 488.72C300.606 489.31 262.726 473.37 262.656 473.34" fill="#FF0000"></path> <path d="M264.056 467.79C264.156 467.79 306.686 472.42 317.246 469.14C325.556 466.56 358.246 437.4 358.246 437.4C358.246 437.4 363.596 430.91 366.716 434.4C371.976 440.25 371.476 459.4 367.176 465.62C359.526 476.62 325.456 488.56 320.316 488.72C300.606 489.31 262.726 473.37 262.656 473.34" stroke="#474646" stroke-miterlimit="10"></path> <path d="M264.216 467.699C264.216 467.699 257.136 460.3 254.066 460.49C252.765 460.613 251.483 460.889 250.246 461.309L249.556 461.549C247.646 462.459 245.556 465.55 246.056 467.84C248.443 469.254 250.991 470.379 253.646 471.189C256.631 472.174 259.711 472.845 262.836 473.189L264.216 467.699Z" fill="white" stroke="#474646" stroke-linecap="round" stroke-linejoin="round"></path> <path d="M285.055 768.751C285.055 768.751 257.445 774.431 263.635 780.831C269.825 787.231 298.035 778.741 298.035 778.741L295.855 787.491L303.925 788.841L304.755 762.641C298.963 766.636 292.091 768.767 285.055 768.751Z" fill="#FF0000" stroke="#474646" stroke-miterlimit="10"></path> <path d="M412.616 745.132C412.616 745.132 396.216 768.052 405.106 768.542C413.996 769.032 428.937 743.652 428.937 743.652L433.277 751.552L440.116 747.062L422.927 727.262C421.389 734.13 417.792 740.364 412.616 745.132Z" fill="#FF0000" stroke="#474646" stroke-miterlimit="10"></path> <path d="M47.8761 386.16C45.954 385.233 43.8938 384.625 41.7762 384.36C40.7154 384.233 39.6397 384.364 38.6404 384.742C37.6412 385.12 36.7478 385.733 36.0362 386.53C34.7262 388.2 34.8062 390.99 36.5462 392.21C37.8486 392.911 39.3479 393.158 40.8062 392.91L66.5162 391.37C63.2562 391.76 60.5162 388.92 59.0062 385.98C57.4962 383.04 56.7161 379.69 54.4761 377.27C52.2361 374.85 47.7762 374.04 45.9162 376.75C44.0562 379.46 46.1962 383.1 48.2862 385.67" fill="#FF0000"></path> <path d="M58.345 423.391C56.725 420.731 55.065 417.981 54.575 414.911C54.085 411.841 55.0451 408.311 57.6851 406.661C60.7451 404.751 64.975 406.041 67.495 408.661C70.015 411.281 71.235 414.781 72.375 418.211L78.0551 435.211L50.1651 427.431C47.6551 426.721 44.575 425.291 44.745 422.681C44.885 420.551 47.415 419.251 49.515 419.601C51.615 419.951 53.345 421.431 54.945 422.841" fill="#FF0000"></path> <path d="M15.8265 362.03C13.3365 363.32 10.4065 361.79 7.82647 360.68C5.24647 359.57 1.53657 359.27 0.306576 361.79C-0.533424 363.52 0.456537 365.7 2.01653 366.79C3.67712 367.786 5.54584 368.385 7.4765 368.54L35.6866 372.9L26.0065 356.2C24.6365 353.83 23.1965 351.39 21.0065 349.81C18.8165 348.23 15.5065 347.81 13.3765 349.48C11.4565 351.02 11.0165 353.87 11.6565 356.24C12.4603 358.575 13.71 360.731 15.3365 362.59" fill="#FF0000"></path> <path d="M89.7572 411.481C85.5072 414.391 84.7572 421.291 88.3772 425.001C91.9972 428.711 98.8772 428.241 101.937 424.091C106.357 418.091 102.197 408.641 106.587 402.621C104.982 404.434 102.925 405.79 100.626 406.552C98.3273 407.314 95.868 407.455 93.4972 406.961C91.5672 406.541 89.7472 405.691 87.8172 405.271C86.8671 404.997 85.8688 404.934 84.8916 405.084C83.9144 405.234 82.9814 405.595 82.1572 406.141C81.7127 406.522 81.3477 406.988 81.083 407.51C80.8183 408.033 80.6591 408.602 80.6145 409.186C80.5699 409.77 80.6408 410.357 80.8231 410.914C81.0054 411.471 81.2957 411.986 81.6772 412.431C82.0587 412.875 82.5239 413.24 83.0465 413.505C83.5691 413.77 84.1387 413.929 84.7228 413.973C85.3068 414.018 85.894 413.947 86.4507 413.765C87.0073 413.582 87.5226 413.292 87.9671 412.911" fill="#FF0000"></path> <path d="M39.0778 344.201C38.0778 342.021 36.5178 340.201 35.4878 338.001C34.4578 335.801 34.0678 333.111 35.4878 331.181C37.0678 329.021 40.4278 328.791 42.7578 330.111C45.0878 331.431 46.5478 333.901 47.4878 336.411C48.4278 338.921 48.9579 341.581 50.0479 344.041C51.1379 346.501 52.8979 348.821 55.4279 349.711L44.6178 350.711C41.1678 351.041 37.6178 351.361 34.3578 350.091C31.0978 348.821 28.4678 345.451 29.2078 342.091C29.437 341.029 29.9746 340.059 30.7529 339.301C31.5313 338.543 32.516 338.032 33.5836 337.831C34.6513 337.631 35.7545 337.749 36.7549 338.173C37.7553 338.596 38.6086 339.305 39.2078 340.211" fill="#FF0000"></path> <path d="M73.7555 259.041C72.1155 256.251 70.4455 253.391 69.7555 250.221C69.0655 247.051 69.5855 243.451 71.8455 241.121C74.1055 238.791 78.3155 238.351 80.5155 240.721C82.0255 242.361 82.2755 244.721 82.4455 246.991L85.4455 286.061C85.3655 281.061 80.5156 277.461 75.7856 275.851C71.0556 274.241 65.7855 273.691 61.7255 270.851C57.6655 268.011 55.4856 261.411 59.1856 258.051C62.8856 254.691 68.7955 257.171 73.1055 259.781" fill="#474646"></path> <path d="M156.876 311.91C154.782 310.816 152.497 310.137 150.146 309.91C147.796 309.91 145.256 310.91 144.286 313.09C143.166 315.57 144.566 318.61 146.756 320.23C148.946 321.85 151.756 322.4 154.406 322.91L167.756 325.48L159.086 305.4C158.306 303.59 156.916 301.4 154.976 301.83C153.396 302.15 152.686 304.17 153.166 305.71C153.796 307.212 154.836 308.508 156.166 309.45" fill="#474646"></path> <path d="M21.1281 276.931C22.0181 274.441 20.2081 271.931 18.8381 269.621C17.4681 267.311 16.7182 263.911 18.9282 262.441C20.4382 261.441 22.5981 262.081 23.8481 263.441C24.9933 264.865 25.7911 266.536 26.1782 268.321L33.8681 294.161L16.9981 287.231C14.6081 286.231 12.1481 285.231 10.3781 283.331C8.60811 281.431 7.76809 278.441 9.09809 276.231C10.2881 274.231 12.8981 273.461 15.1981 273.761C17.4849 274.215 19.6619 275.108 21.6081 276.391" fill="#474646"></path> <path d="M29.2566 230.061C29.9766 228.061 28.5166 226.001 27.4166 224.171C26.3166 222.341 25.7066 219.571 27.4766 218.381C28.1308 218.032 28.8847 217.918 29.6127 218.058C30.3406 218.198 30.9985 218.584 31.4766 219.151C32.4012 220.3 33.045 221.649 33.3566 223.091L39.5567 243.93L25.9566 238.34C23.9756 237.682 22.1584 236.608 20.6266 235.19C19.1966 233.67 18.5166 231.251 19.6266 229.461C20.176 228.699 20.9289 228.107 21.7991 227.753C22.6692 227.4 23.6215 227.298 24.5466 227.461C26.3886 227.834 28.1429 228.553 29.7166 229.581" fill="#474646"></path> <path d="M135.975 337.37C138.275 332.76 144.975 331.13 149.175 334.18C153.375 337.23 153.815 344.18 150.115 347.73C144.765 352.92 134.845 350.08 129.475 355.24C131.053 353.403 132.119 351.181 132.563 348.8C133.008 346.419 132.815 343.963 132.005 341.68C131.325 339.83 130.235 338.14 129.555 336.29C129.157 335.384 128.961 334.403 128.978 333.414C128.995 332.425 129.226 331.451 129.655 330.56C129.966 330.054 130.375 329.615 130.858 329.269C131.341 328.923 131.889 328.677 132.468 328.546C133.048 328.414 133.647 328.4 134.233 328.504C134.818 328.607 135.376 328.827 135.875 329.149C136.374 329.472 136.804 329.891 137.139 330.382C137.474 330.872 137.707 331.425 137.825 332.007C137.943 332.59 137.944 333.19 137.827 333.772C137.711 334.355 137.478 334.908 137.145 335.4" fill="#474646"></path> <path d="M114.667 292.681C112.377 292.011 110.317 290.681 108.047 289.961C105.777 289.241 103.047 289.211 101.287 290.871C99.3569 292.731 99.5768 296.091 101.197 298.221C102.817 300.351 105.467 301.461 108.087 302.061C110.707 302.661 113.407 302.821 115.987 303.561C118.567 304.301 121.107 305.741 122.337 308.121L121.907 297.271C121.767 293.811 121.597 290.211 119.907 287.191C118.217 284.171 114.517 281.981 111.267 283.191C110.251 283.562 109.367 284.224 108.725 285.094C108.083 285.964 107.711 287.004 107.655 288.084C107.6 289.164 107.863 290.237 108.413 291.168C108.963 292.099 109.775 292.848 110.747 293.321" fill="#474646"></path> <path d="M517.35 952.879C416.088 952.879 334 938.642 334 921.079C334 903.516 416.088 889.279 517.35 889.279C618.611 889.279 700.7 903.516 700.7 921.079C700.7 938.642 618.611 952.879 517.35 952.879Z" fill="#EEEEEE"></path> <path d="M698.675 542.139L606.135 584.699L635.225 596.659L610.655 624.559L621.075 633.309L645.055 605.679L658.795 636.489L698.675 542.139Z" fill="white"></path> <path fill-rule="evenodd" clip-rule="evenodd" d="M699.64 541.146L604.884 584.725L634.388 596.855L609.943 624.613L621.132 634.008L644.92 606.6L658.809 637.745L699.64 541.146ZM697.714 543.133L658.785 635.234L645.194 604.759L621.022 632.611L611.371 624.505L636.066 596.464L607.389 584.673L697.714 543.133Z" fill="#474646"></path> <path fill-rule="evenodd" clip-rule="evenodd" d="M722.62 500.631L703.57 529.201L704.402 529.756L723.452 501.186L722.62 500.631Z" fill="#474646"></path> <path fill-rule="evenodd" clip-rule="evenodd" d="M737.327 548.039H709.547V549.039H737.327V548.039Z" fill="#474646"></path> <path fill-rule="evenodd" clip-rule="evenodd" d="M683.038 508.083L688.818 535.263L689.796 535.054L684.016 507.875L683.038 508.083Z" fill="#474646"></path> <path d="M560.526 592.259C578.446 606.259 604.586 583.75 609.186 573.35C611.413 568.095 612.064 562.306 611.059 556.688C610.054 551.07 607.436 545.866 603.526 541.709C592.936 530.809 573.286 527.249 570.216 512.369C568.386 503.509 573.786 494.999 576.876 486.489C579.966 477.979 579.186 465.929 570.626 462.999C559.956 459.349 558.186 447.999 538.376 446.699C522.646 445.699 514.566 453.57 498.876 455.09C488.576 456.09 482.466 468.279 484.106 478.489C485.746 488.699 500.756 494.779 499.396 505.029C496.796 524.559 463.086 520.439 446.226 530.629C429.366 540.819 415.416 561.49 423.226 579.58C430.576 596.64 453.226 601.579 471.336 597.449C489.446 593.319 507.456 568.76 523.516 578.1" fill="#474646"></path> <path d="M566.408 695.228C566.408 695.118 557.758 648.728 556.408 635.538C555.328 625.148 541.778 575.788 541.778 575.788C541.778 575.788 535.398 567.968 540.218 565.108C548.328 560.288 557.708 569.428 563.968 575.938C575.098 587.518 581.178 630.418 580.148 636.488C576.228 659.838 572.668 698.078 572.618 698.158" fill="#FF0000"></path> <path fill-rule="evenodd" clip-rule="evenodd" d="M553.045 565.846C548.841 563.312 544.253 562.129 539.963 564.678C538.604 565.485 538.02 566.666 537.93 567.949C537.842 569.199 538.222 570.531 538.731 571.718C539.244 572.913 539.909 574.008 540.441 574.801C540.708 575.198 540.944 575.522 541.114 575.747C541.198 575.86 541.267 575.948 541.314 576.009C541.317 576.013 541.32 576.016 541.323 576.02L541.448 576.477C541.548 576.841 541.694 577.376 541.88 578.061C542.252 579.43 542.786 581.399 543.429 583.793C544.716 588.582 546.443 595.075 548.204 601.892C549.965 608.71 551.759 615.85 553.179 621.933C554.603 628.028 555.644 633.029 555.911 635.589C556.588 642.206 559.092 657.122 561.422 670.375C562.588 677.006 563.711 683.229 564.543 687.8C564.959 690.085 565.303 691.958 565.542 693.263C565.661 693.916 565.755 694.426 565.819 694.775C565.85 694.949 565.875 695.083 565.891 695.173L565.909 695.275L565.913 695.296L565.911 695.285C565.91 695.278 565.908 695.249 565.908 695.228H566.908C566.907 695.207 566.905 695.178 566.904 695.17L566.902 695.154L566.9 695.137L566.894 695.104C566.89 695.079 566.883 695.042 566.875 694.997C566.859 694.904 566.834 694.77 566.802 694.595C566.743 694.271 566.659 693.809 566.551 693.224L566.525 693.083C566.286 691.778 565.943 689.906 565.527 687.621C564.695 683.051 563.572 676.83 562.407 670.202C560.074 656.935 557.578 642.06 556.905 635.488C556.631 632.853 555.574 627.787 554.153 621.705C552.73 615.611 550.934 608.463 549.172 601.642C547.41 594.821 545.682 588.324 544.395 583.534C543.751 581.138 543.217 579.169 542.845 577.798C542.658 577.113 542.512 576.578 542.413 576.213L542.261 575.658L542.26 575.657C542.26 575.656 542.26 575.656 541.778 575.788L542.26 575.657L542.232 575.554L542.165 575.472L542.162 575.468L542.15 575.453C542.145 575.447 542.138 575.438 542.13 575.428C542.121 575.417 542.112 575.405 542.101 575.391C542.057 575.336 541.993 575.253 541.913 575.146C541.752 574.933 541.527 574.623 541.271 574.243C540.758 573.48 540.13 572.441 539.65 571.324C539.167 570.198 538.855 569.039 538.927 568.019C538.996 567.031 539.422 566.162 540.473 565.538C544.293 563.268 548.451 564.245 552.529 566.703C556.606 569.161 560.474 573.027 563.608 576.285C566.316 579.102 568.754 583.874 570.867 589.604C572.976 595.32 574.741 601.933 576.129 608.385C577.517 614.835 578.526 621.113 579.123 626.154C579.422 628.675 579.617 630.882 579.706 632.644C579.795 634.42 579.774 635.705 579.655 636.405C577.693 648.094 575.821 663.504 574.435 675.994C573.741 682.241 573.169 687.76 572.767 691.722C572.59 693.467 572.446 694.91 572.339 695.981L572.298 696.393C572.243 696.943 572.2 697.369 572.17 697.658C572.155 697.803 572.144 697.912 572.136 697.986C572.132 698.023 572.129 698.049 572.127 698.064C572.126 698.071 572.126 698.073 572.126 698.073C572.126 698.073 572.127 698.065 572.129 698.055C572.13 698.049 572.134 698.033 572.137 698.023C572.142 698.004 572.169 697.938 572.194 697.893L573.042 698.423C573.067 698.378 573.094 698.311 573.1 698.291C573.103 698.281 573.107 698.263 573.108 698.256C573.111 698.243 573.113 698.232 573.114 698.226C573.116 698.214 573.117 698.201 573.119 698.189C573.122 698.166 573.126 698.134 573.13 698.095C573.138 698.018 573.15 697.905 573.165 697.76C573.195 697.469 573.238 697.042 573.293 696.493L573.334 696.08C573.441 695.01 573.585 693.567 573.762 691.823C574.164 687.863 574.736 682.347 575.429 676.105C576.815 663.618 578.683 648.232 580.641 636.572C580.78 635.754 580.794 634.371 580.704 632.594C580.614 630.803 580.416 628.572 580.116 626.036C579.515 620.964 578.501 614.655 577.107 608.174C575.713 601.695 573.935 595.032 571.806 589.258C569.681 583.498 567.185 578.564 564.328 575.592C561.202 572.34 557.25 568.381 553.045 565.846ZM565.913 695.297V695.296C565.913 695.298 565.913 695.299 565.913 695.297Z" fill="#474646"></path> <path d="M572.467 693.979C572.467 693.979 579.467 704.059 578.577 707.619C578.122 709.122 577.491 710.565 576.697 711.919C576.567 712.179 576.417 712.429 576.267 712.679C574.737 714.679 570.617 716.509 568.037 715.319C566.932 712.177 566.207 708.914 565.877 705.599C565.407 701.854 565.327 698.071 565.637 694.309L572.467 693.979Z" fill="#FFF8E6"></path> <path fill-rule="evenodd" clip-rule="evenodd" d="M572.878 693.693C572.779 693.551 572.615 693.47 572.443 693.479L565.613 693.809L565.637 694.308L565.139 694.267C564.826 698.061 564.907 701.877 565.38 705.654C565.715 709.006 566.448 712.306 567.565 715.484C567.61 715.612 567.705 715.716 567.828 715.772C569.289 716.446 571.115 716.244 572.716 715.664C574.323 715.083 575.826 714.077 576.664 712.982C576.675 712.967 576.686 712.951 576.696 712.935L576.701 712.927C576.845 712.686 577 712.428 577.137 712.157C577.947 710.773 578.591 709.298 579.056 707.763C579.058 707.755 579.06 707.747 579.062 707.739C579.197 707.2 579.175 706.575 579.063 705.925C578.95 705.269 578.739 704.552 578.467 703.812C577.923 702.333 577.118 700.714 576.293 699.221C575.467 697.726 574.614 696.345 573.968 695.339C573.644 694.835 573.372 694.425 573.181 694.139C573.086 693.997 573.01 693.886 572.958 693.81L572.899 693.723L572.883 693.701L572.878 693.693C572.878 693.693 572.878 693.693 572.467 693.978L572.878 693.693ZM572.212 694.491C572.252 694.549 572.298 694.618 572.351 694.697C572.539 694.977 572.807 695.382 573.126 695.879C573.765 696.874 574.606 698.235 575.418 699.705C576.232 701.177 577.01 702.746 577.528 704.157C577.788 704.863 577.978 705.518 578.077 706.095C578.176 706.671 578.179 707.136 578.095 707.486C577.652 708.946 577.038 710.349 576.266 711.665C576.26 711.675 576.255 711.684 576.25 711.694C576.134 711.926 575.999 712.153 575.853 712.396C575.157 713.293 573.844 714.193 572.376 714.724C570.972 715.232 569.534 715.366 568.436 714.944C567.386 711.903 566.694 708.75 566.374 705.549L566.373 705.536C565.926 701.97 565.835 698.369 566.101 694.786L572.212 694.491Z" fill="#474646"></path> <path d="M567.218 731.818C567.218 731.818 564.578 861.898 540.138 913.068C540.138 913.068 541.068 918.298 545.738 920.368C550.408 922.438 523.658 917.848 522.398 912.128C522.398 912.128 521.948 757.878 517.308 738.128" fill="white"></path> <path fill-rule="evenodd" clip-rule="evenodd" d="M567.228 731.318C566.952 731.312 566.723 731.532 566.718 731.808L567.218 731.818L567.718 731.828C567.723 731.552 567.504 731.324 567.228 731.318ZM540.138 913.068C539.645 913.155 539.645 913.156 539.645 913.156L539.647 913.162L539.649 913.177C539.652 913.189 539.655 913.206 539.659 913.228C539.664 913.251 539.67 913.28 539.678 913.315C539.684 913.343 539.692 913.376 539.7 913.411C539.737 913.568 539.794 913.791 539.878 914.064C540.045 914.609 540.318 915.357 540.743 916.173C541.466 917.559 542.64 919.163 544.498 920.285C544.433 920.278 544.367 920.27 544.299 920.262C542.455 920.036 539.531 919.483 536.415 918.685C533.298 917.886 530.015 916.85 527.442 915.665C526.154 915.073 525.064 914.451 524.265 913.817C523.479 913.193 523.033 912.604 522.898 912.069L522.896 911.683C522.895 911.39 522.894 910.956 522.892 910.389C522.887 909.254 522.88 907.587 522.869 905.459C522.848 901.202 522.812 895.099 522.755 887.714C522.64 872.943 522.439 853.043 522.093 832.526C521.746 812.009 521.255 790.871 520.56 773.627C520.213 765.005 519.814 757.354 519.357 751.237C518.901 745.134 518.385 740.526 517.794 738.013C517.731 737.745 517.462 737.578 517.193 737.641C516.924 737.704 516.758 737.973 516.821 738.242C517.391 740.667 517.903 745.2 518.36 751.312C518.816 757.412 519.214 765.051 519.561 773.667C520.255 790.9 520.747 812.028 521.093 832.542C521.439 853.056 521.64 872.953 521.755 887.721C521.812 895.106 521.848 901.208 521.869 905.464C521.88 907.592 521.887 909.258 521.892 910.393C521.894 910.96 521.895 911.394 521.896 911.686L521.898 912.127C521.898 912.129 521.898 912.129 522.398 912.128L521.898 912.129C521.898 912.165 521.902 912.2 521.909 912.235C522.104 913.118 522.767 913.906 523.643 914.601C524.53 915.304 525.7 915.964 527.024 916.574C529.675 917.794 533.023 918.848 536.167 919.653C539.313 920.459 542.28 921.022 544.177 921.254C544.652 921.312 545.066 921.35 545.403 921.366C545.725 921.38 546.02 921.377 546.232 921.332C546.289 921.319 546.355 921.301 546.421 921.272C546.483 921.244 546.576 921.193 546.654 921.098C546.744 920.99 546.798 920.844 546.781 920.683C546.767 920.541 546.703 920.436 546.656 920.375C546.566 920.258 546.441 920.173 546.343 920.114C546.232 920.047 546.096 919.98 545.94 919.911C543.742 918.936 542.413 917.214 541.63 915.71C541.239 914.96 540.987 914.271 540.834 913.771C540.757 913.521 540.706 913.32 540.673 913.182C540.669 913.164 540.665 913.147 540.662 913.131C546.764 900.291 551.498 882.58 555.171 863.254C558.859 843.842 561.482 822.769 563.34 803.302C565.199 783.834 566.293 765.967 566.923 752.967C567.238 746.466 567.436 741.183 567.556 737.524C567.616 735.694 567.657 734.271 567.682 733.304C567.695 732.821 567.703 732.452 567.709 732.204L567.716 731.923L567.718 731.83C567.718 731.829 567.718 731.828 567.218 731.818C566.718 731.808 566.718 731.808 566.718 731.809L566.716 731.902L566.71 732.181C566.704 732.428 566.695 732.796 566.682 733.278C566.657 734.242 566.617 735.664 566.557 737.491C566.437 741.145 566.238 746.424 565.924 752.918C565.295 765.907 564.201 783.758 562.345 803.207C560.488 822.656 557.869 843.697 554.188 863.067C550.506 882.445 545.768 900.119 539.686 912.852C539.641 912.947 539.627 913.053 539.645 913.156L540.138 913.068Z" fill="#474646"></path> <path d="M516.288 731.77C516.288 731.77 513.658 861.85 489.208 913.03C489.208 913.03 490.138 918.25 494.808 920.32C499.478 922.39 472.738 917.8 471.468 912.08C471.468 912.08 471.028 757.83 466.378 738.13" fill="white"></path> <path fill-rule="evenodd" clip-rule="evenodd" d="M516.298 731.27C516.022 731.265 515.794 731.484 515.788 731.76L516.288 731.77L516.788 731.78C516.793 731.504 516.574 731.276 516.298 731.27ZM489.208 913.03C488.716 913.118 488.716 913.118 488.716 913.118V913.12L488.717 913.125L488.72 913.139C488.722 913.151 488.725 913.168 488.73 913.19C488.739 913.233 488.752 913.295 488.77 913.373C488.807 913.53 488.865 913.752 488.948 914.025C489.115 914.569 489.388 915.316 489.813 916.13C490.536 917.515 491.71 919.116 493.568 920.237C493.504 920.23 493.438 920.222 493.371 920.214C491.527 919.989 488.605 919.435 485.49 918.637C482.373 917.839 479.09 916.802 476.516 915.618C475.228 915.025 474.138 914.404 473.338 913.77C472.551 913.146 472.105 912.556 471.968 912.021L471.967 911.635C471.966 911.343 471.964 910.908 471.962 910.341C471.957 909.206 471.95 907.54 471.94 905.411C471.919 901.155 471.883 895.052 471.827 887.667C471.713 872.897 471.512 852.999 471.167 832.484C470.821 811.97 470.33 790.838 469.635 773.6C469.287 764.982 468.888 757.334 468.43 751.223C467.974 745.124 467.456 740.521 466.865 738.015C466.801 737.746 466.532 737.58 466.263 737.643C465.994 737.707 465.828 737.976 465.891 738.245C466.462 740.663 466.976 745.19 467.433 751.298C467.89 757.393 468.288 765.028 468.635 773.641C469.33 790.866 469.821 811.99 470.167 832.501C470.512 853.011 470.713 872.907 470.827 887.675C470.884 895.058 470.919 901.16 470.94 905.416C470.951 907.544 470.958 909.211 470.962 910.345C470.964 910.912 470.966 911.346 470.967 911.639L470.968 912.08C470.968 912.081 470.968 912.082 471.468 912.08L470.968 912.082C470.968 912.118 470.972 912.153 470.98 912.189C471.176 913.07 471.84 913.858 472.716 914.553C473.604 915.257 474.774 915.916 476.098 916.526C478.75 917.746 482.098 918.8 485.241 919.606C488.386 920.411 491.353 920.975 493.249 921.207C493.724 921.265 494.138 921.303 494.474 921.318C494.796 921.333 495.091 921.329 495.303 921.284C495.36 921.272 495.426 921.254 495.491 921.224C495.553 921.196 495.647 921.145 495.725 921.05C495.815 920.941 495.868 920.795 495.852 920.635C495.837 920.493 495.773 920.389 495.726 920.327C495.637 920.21 495.512 920.126 495.413 920.066C495.302 920 495.167 919.932 495.011 919.863C492.812 918.889 491.484 917.169 490.7 915.667C490.309 914.918 490.057 914.23 489.904 913.731C489.828 913.482 489.776 913.281 489.744 913.144C489.739 913.126 489.736 913.109 489.732 913.093C495.837 900.251 500.573 882.538 504.245 863.21C507.934 843.797 510.557 822.723 512.414 803.255C514.272 783.787 515.366 765.919 515.994 752.919C516.309 746.419 516.507 741.135 516.627 737.476C516.687 735.646 516.727 734.223 516.752 733.257C516.765 732.773 516.774 732.405 516.78 732.156L516.786 731.875L516.788 731.782C516.788 731.781 516.788 731.78 516.288 731.77C515.788 731.76 515.788 731.76 515.788 731.761L515.786 731.854L515.78 732.133C515.774 732.38 515.765 732.748 515.753 733.23C515.727 734.195 515.687 735.616 515.628 737.443C515.508 741.098 515.31 746.376 514.996 752.871C514.367 765.86 513.275 783.711 511.419 803.16C509.563 822.61 506.944 843.652 503.263 863.023C499.58 882.403 494.841 900.078 488.757 912.815C488.712 912.909 488.697 913.015 488.716 913.118L489.208 913.03Z" fill="#474646"></path> <path d="M513.865 547.79C519.795 535.66 512.965 499.44 512.965 499.44C512.427 496.709 512.156 493.933 512.155 491.149C512.155 473.739 522.465 459.629 535.155 459.629C547.845 459.629 558.155 473.739 558.155 491.149C558.155 508.559 547.855 522.659 535.155 522.659C534.356 522.659 533.557 522.602 532.765 522.49L532.905 522.659C527.405 550.659 549.435 557.81 549.435 557.81C536.295 576.87 491.385 561.2 491.385 561.2C491.385 561.2 507.935 559.92 513.865 547.79Z" fill="white"></path> <path fill-rule="evenodd" clip-rule="evenodd" d="M551.818 468.566C547.586 462.768 541.699 459.129 535.155 459.129C528.611 459.129 522.725 462.768 518.493 468.566C514.26 474.364 511.655 482.35 511.655 491.149C511.656 493.964 511.931 496.772 512.474 499.534C512.474 499.535 512.474 499.535 512.475 499.536V499.538L512.479 499.558L512.493 499.635C512.506 499.703 512.524 499.805 512.548 499.938C512.597 500.205 512.667 500.599 512.754 501.105C512.929 502.116 513.172 503.575 513.445 505.364C513.992 508.942 514.659 513.839 515.141 519.111C515.623 524.386 515.919 530.027 515.727 535.099C515.534 540.187 514.85 544.636 513.416 547.57C510.531 553.472 505.048 556.76 500.225 558.575C497.82 559.481 495.595 560.013 493.971 560.319C493.16 560.471 492.501 560.567 492.045 560.625C491.818 560.654 491.641 560.673 491.523 560.685C491.485 560.689 491.453 560.692 491.427 560.694C491.412 560.695 491.399 560.697 491.389 560.697L491.356 560.7L491.348 560.701H491.347C491.111 560.719 490.92 560.9 490.889 561.135C490.859 561.37 490.997 561.594 491.221 561.672L491.385 561.2C491.221 561.672 491.22 561.671 491.221 561.672L491.23 561.675L491.255 561.684L491.353 561.717C491.44 561.747 491.568 561.79 491.736 561.845C492.07 561.956 492.562 562.116 493.192 562.313C494.451 562.706 496.264 563.246 498.48 563.833C502.909 565.009 508.958 566.377 515.424 567.149C521.885 567.919 528.789 568.096 534.92 566.871C541.051 565.645 546.462 563.004 549.847 558.093C549.936 557.963 549.959 557.799 549.909 557.649C549.858 557.5 549.74 557.383 549.59 557.334H549.588L549.578 557.33L549.536 557.316C549.498 557.303 549.439 557.282 549.363 557.254C549.209 557.197 548.982 557.109 548.694 556.987C548.117 556.743 547.295 556.362 546.323 555.819C544.379 554.73 541.843 552.993 539.477 550.398C534.799 545.265 530.737 536.728 533.336 523.064C533.94 523.127 534.547 523.159 535.155 523.159C541.703 523.159 547.59 519.523 551.822 513.728C556.053 507.932 558.655 499.949 558.655 491.149C558.655 482.35 556.05 474.364 551.818 468.566ZM532.369 522.795C529.68 536.817 533.839 545.697 538.738 551.071C541.193 553.764 543.821 555.564 545.835 556.691C546.842 557.255 547.698 557.652 548.305 557.908C548.43 557.961 548.545 558.008 548.648 558.049C545.443 562.34 540.478 564.739 534.723 565.89C528.738 567.087 521.951 566.92 515.542 566.156C509.138 565.392 503.137 564.034 498.736 562.867C496.611 562.303 494.86 561.784 493.619 561.399C493.79 561.369 493.969 561.337 494.156 561.301C495.822 560.988 498.105 560.442 500.578 559.511C505.513 557.654 511.27 554.238 514.314 548.009C515.845 544.878 516.532 540.251 516.726 535.137C516.921 530.005 516.621 524.317 516.137 519.02C515.653 513.722 514.983 508.805 514.434 505.213C514.16 503.417 513.915 501.951 513.74 500.934C513.652 500.426 513.581 500.03 513.532 499.76C513.508 499.625 513.489 499.522 513.476 499.453L513.462 499.374L513.457 499.347C513.456 499.347 513.456 499.347 512.965 499.44L513.457 499.347L513.456 499.343C512.924 496.644 512.656 493.9 512.655 491.149L532.369 522.795ZM532.369 522.795C532.247 522.637 532.231 522.42 532.329 522.245C532.43 522.065 532.631 521.966 532.835 521.995C533.604 522.104 534.379 522.159 535.156 522.159C541.307 522.159 546.92 518.746 551.014 513.138C555.107 507.532 557.655 499.76 557.655 491.149C557.655 482.539 555.105 474.765 551.01 469.156C546.915 463.546 541.301 460.129 535.155 460.129C529.009 460.129 523.396 463.546 519.3 469.156C515.205 474.765 512.655 482.539 512.655 491.149" fill="#474646"></path> <path d="M548.125 557.879C548.125 557.879 557.765 591.65 558.185 620.25C558.605 648.85 580.995 813.58 576.255 818.35C571.515 823.12 455.615 814.55 455.615 814.55C455.615 814.55 477.755 640.68 476.615 621.79C473.005 561.13 494.615 561.01 494.615 561.01C494.615 561.01 536.745 574.879 548.125 557.879Z" fill="#FF0000"></path> <path fill-rule="evenodd" clip-rule="evenodd" d="M548.309 556.705L547.709 557.601C544.967 561.698 540.347 563.973 534.866 565.05C529.387 566.126 523.111 565.991 517.158 565.322C511.21 564.655 505.611 563.457 501.497 562.426C499.441 561.911 497.757 561.437 496.588 561.093C496.004 560.92 495.549 560.781 495.24 560.684C495.085 560.636 494.968 560.598 494.889 560.573L494.8 560.544L494.778 560.537L494.771 560.535C494.771 560.535 494.771 560.535 494.615 561.009C494.612 560.509 494.611 560.509 494.61 560.509H494.608L494.602 560.51H494.585C494.571 560.51 494.552 560.511 494.527 560.512C494.479 560.515 494.41 560.519 494.323 560.528C494.149 560.545 493.901 560.579 493.591 560.644C492.97 560.773 492.101 561.027 491.076 561.526C489.021 562.527 486.365 564.5 483.842 568.379C478.805 576.124 474.308 591.448 476.116 621.819C476.256 624.14 476.038 628.889 475.541 635.458C475.045 642.014 474.274 650.351 473.317 659.827C471.402 678.78 468.742 702.281 466.046 725.195C463.349 748.108 460.618 770.431 458.56 787.026C457.531 795.323 456.671 802.188 456.068 806.979C455.766 809.375 455.529 811.251 455.367 812.529L455.119 814.484C455.119 814.485 455.119 814.485 455.132 814.487C455.163 814.492 455.265 814.505 455.603 814.548L455.119 814.486L455.052 815.009L455.578 815.048L455.615 814.549C455.578 815.048 455.578 815.048 455.579 815.048L455.583 815.049L455.599 815.05L455.911 815.073C456.13 815.089 456.456 815.112 456.881 815.143C457.732 815.205 458.979 815.295 460.569 815.407C463.748 815.632 468.294 815.948 473.765 816.313C484.706 817.042 499.344 817.964 514.131 818.738C528.917 819.511 543.857 820.135 555.399 820.268C561.169 820.334 566.099 820.278 569.74 820.055C571.56 819.943 573.07 819.789 574.207 819.585C574.775 819.483 575.263 819.366 575.655 819.231C576.033 819.1 576.379 818.934 576.609 818.702C576.75 818.561 576.848 818.378 576.921 818.197C576.996 818.01 577.058 817.79 577.11 817.547C577.214 817.061 577.287 816.434 577.336 815.685C577.434 814.186 577.436 812.139 577.356 809.625C577.196 804.594 576.708 797.645 575.988 789.363C574.548 772.795 572.18 750.857 569.651 728.18C568.856 721.049 568.045 713.847 567.243 706.715C562.936 668.464 558.861 632.268 558.685 620.242C558.474 605.896 555.952 590.269 553.487 578.239C552.254 572.222 551.034 567.099 550.122 563.481C549.666 561.671 549.287 560.238 549.022 559.256C548.89 558.765 548.786 558.387 548.715 558.132C548.679 558.004 548.652 557.907 548.633 557.841L548.613 557.767L548.605 557.743C548.605 557.742 548.605 557.742 548.125 557.879L548.605 557.743L548.309 556.705ZM547.921 559.016C547.962 559.167 548.007 559.334 548.057 559.517C548.321 560.493 548.698 561.921 549.152 563.725C550.061 567.332 551.278 572.44 552.507 578.44C554.967 590.445 557.475 606.002 557.685 620.257C557.862 632.337 561.945 668.602 566.251 706.843C567.053 713.972 567.863 721.169 568.658 728.291C571.186 750.968 573.553 772.895 574.992 789.449C575.711 797.727 576.197 804.654 576.356 809.657C576.436 812.16 576.433 814.169 576.338 815.62C576.291 816.347 576.221 816.92 576.132 817.338C576.087 817.548 576.04 817.707 575.993 817.823C575.944 817.944 575.908 817.989 575.9 817.997C575.834 818.063 575.666 818.169 575.328 818.286C575.004 818.398 574.571 818.504 574.03 818.601C572.949 818.795 571.483 818.946 569.679 819.057C566.075 819.278 561.173 819.334 555.411 819.268C543.889 819.136 528.965 818.512 514.183 817.739C499.403 816.966 484.77 816.044 473.831 815.315C468.362 814.951 463.817 814.635 460.639 814.41C459.05 814.297 457.803 814.207 456.954 814.146C456.64 814.123 456.38 814.104 456.177 814.089C456.219 813.76 456.28 813.279 456.359 812.655C456.521 811.377 456.758 809.5 457.06 807.104C457.663 802.313 458.523 795.447 459.552 787.149C461.61 770.553 464.342 748.227 467.039 725.312C469.735 702.396 472.396 678.888 474.312 659.928C475.27 650.448 476.041 642.101 476.538 635.533C477.034 628.978 477.259 624.161 477.114 621.759C475.311 591.471 479.815 576.405 484.68 568.925C487.108 565.191 489.628 563.343 491.513 562.426C492.458 561.966 493.248 561.737 493.795 561.623C494.069 561.565 494.282 561.537 494.422 561.523C494.473 561.518 494.515 561.515 494.546 561.513L494.583 561.525C494.664 561.551 494.784 561.589 494.941 561.638C495.255 561.736 495.716 561.878 496.306 562.052C497.486 562.4 499.182 562.877 501.254 563.396C505.395 564.434 511.04 565.642 517.046 566.316C523.048 566.99 529.438 567.135 535.059 566.031C540.301 565.001 544.93 562.873 547.921 559.016ZM494.615 561.009L494.612 560.509H494.693L494.771 560.535L494.615 561.009Z" fill="#474646"></path> <path d="M606.285 621.779C606.175 621.779 554.915 618.778 543.075 612.858C533.755 608.158 500.805 567.198 500.805 567.198C500.805 567.198 495.805 558.458 491.375 561.948C484.005 567.828 480.795 590.649 484.665 598.809C491.555 613.319 529.515 634.198 535.555 635.398C558.775 639.998 606.745 628.609 606.835 628.589" fill="#FF0000"></path> <path fill-rule="evenodd" clip-rule="evenodd" d="M500.372 567.449L500.391 567.483L500.416 567.514L500.806 567.2C500.416 567.514 500.416 567.513 500.416 567.514L500.511 567.632C500.574 567.71 500.667 567.825 500.789 567.976C501.033 568.277 501.392 568.72 501.852 569.285C502.772 570.415 504.096 572.034 505.714 573.992C508.951 577.908 513.363 583.178 518.068 588.596C522.772 594.012 527.772 599.581 532.182 604.093C534.386 606.348 536.448 608.343 538.254 609.925C540.052 611.499 541.626 612.689 542.851 613.307H542.852C545.887 614.825 551.381 616.131 557.847 617.244C564.335 618.361 571.868 619.292 579.028 620.038C593.335 621.528 606.202 622.28 606.286 622.28V621.28C606.287 621.28 606.26 621.279 606.205 621.275C605.97 621.261 605.231 621.218 604.056 621.141C602.622 621.047 600.566 620.907 598.065 620.72C593.062 620.347 586.279 619.787 579.131 619.043C571.982 618.298 564.473 617.37 558.017 616.259C551.54 615.144 546.186 613.856 543.301 612.414C542.196 611.856 540.701 610.738 538.913 609.173C537.133 607.615 535.092 605.639 532.897 603.394C528.507 598.903 523.522 593.351 518.823 587.94C514.126 582.53 509.718 577.267 506.485 573.355C504.869 571.4 503.546 569.782 502.628 568.654C502.168 568.09 501.81 567.648 501.567 567.347C501.445 567.197 501.352 567.081 501.29 567.004L501.219 566.916C501.209 566.899 501.195 566.876 501.178 566.847C501.138 566.781 501.081 566.686 501.006 566.566C500.857 566.328 500.639 565.992 500.364 565.602C499.816 564.822 499.032 563.812 498.1 562.908C497.174 562.01 496.065 561.181 494.862 560.819C493.629 560.448 492.313 560.575 491.066 561.558L491.064 561.559C489.124 563.107 487.501 565.727 486.212 568.852C484.917 571.988 483.937 575.685 483.312 579.443C482.688 583.202 482.416 587.038 482.545 590.454C482.674 593.86 483.204 596.895 484.214 599.025C485.982 602.749 489.713 606.831 494.347 610.858C498.992 614.895 504.593 618.917 510.158 622.516C515.724 626.117 521.264 629.301 525.794 631.661C528.059 632.841 530.074 633.817 531.717 634.537C533.347 635.251 534.645 635.729 535.458 635.891C547.165 638.21 565.043 636.496 579.945 634.222C587.409 633.083 594.147 631.8 599.026 630.8C601.465 630.3 603.44 629.87 604.808 629.565C605.492 629.413 606.025 629.292 606.388 629.208C606.569 629.166 606.708 629.134 606.803 629.112C606.902 629.088 606.945 629.078 606.944 629.079L606.727 628.102C606.726 628.103 606.719 628.104 606.707 628.107C606.15 628.238 594.354 631.012 579.794 633.234C564.883 635.509 547.166 637.191 535.653 634.91C534.957 634.771 533.747 634.335 532.118 633.621C530.502 632.912 528.507 631.947 526.256 630.774C521.754 628.428 516.241 625.26 510.701 621.677C505.16 618.093 499.601 614.099 495.003 610.103C490.392 606.096 486.794 602.126 485.117 598.596C484.192 596.646 483.672 593.768 483.545 590.416C483.418 587.076 483.684 583.308 484.299 579.607C484.914 575.906 485.877 572.285 487.136 569.234C488.4 566.172 489.942 563.735 491.686 562.342C492.654 561.58 493.625 561.491 494.574 561.777C495.555 562.072 496.526 562.775 497.404 563.626C498.275 564.47 499.019 565.427 499.546 566.177C499.809 566.551 500.017 566.871 500.158 567.097C500.229 567.21 500.283 567.299 500.319 567.359C500.337 567.389 500.351 567.412 500.36 567.427L500.369 567.444L500.372 567.449Z" fill="#474646"></path> <path d="M606.136 621.638C606.136 621.638 615.986 614.278 619.586 615.108C621.102 615.513 622.565 616.094 623.946 616.838L624.716 617.248C626.796 618.708 628.716 622.768 627.616 625.388C624.51 626.595 621.27 627.424 617.966 627.858C614.238 628.453 610.457 628.654 606.686 628.458L606.136 621.638Z" fill="#FFF8E6"></path> <path fill-rule="evenodd" clip-rule="evenodd" d="M605.837 621.237C605.837 621.237 605.837 621.237 606.136 621.638L605.837 621.237C605.699 621.34 605.624 621.507 605.637 621.678L606.188 628.498L606.686 628.458L606.66 628.957C610.463 629.155 614.277 628.953 618.038 628.353C621.379 627.914 624.656 627.075 627.797 625.854C627.923 625.805 628.024 625.706 628.077 625.581C628.699 624.1 628.449 622.283 627.823 620.699C627.196 619.11 626.144 617.64 625.003 616.839C624.986 616.827 624.969 616.816 624.951 616.807L624.182 616.397C622.767 615.635 621.268 615.04 619.715 614.625L619.698 614.621C619.152 614.495 618.526 614.531 617.877 614.66C617.223 614.789 616.512 615.02 615.78 615.314C614.315 615.901 612.721 616.758 611.255 617.632C609.786 618.508 608.432 619.408 607.447 620.089C606.954 620.43 606.552 620.716 606.273 620.918C606.134 621.019 606.025 621.098 605.951 621.153L605.866 621.215L605.844 621.231L605.837 621.237ZM607.149 627.98L606.657 621.875C606.714 621.834 606.781 621.784 606.859 621.729C607.133 621.531 607.529 621.248 608.015 620.912C608.989 620.239 610.323 619.352 611.767 618.491C613.213 617.629 614.757 616.801 616.152 616.242C616.849 615.962 617.498 615.754 618.072 615.641C618.646 615.527 619.113 615.514 619.466 615.593C620.941 615.988 622.365 616.554 623.709 617.278L623.711 617.279L624.453 617.674C625.384 618.339 626.321 619.618 626.893 621.067C627.441 622.452 627.614 623.887 627.229 625.001C624.223 626.151 621.092 626.943 617.901 627.362L617.887 627.364C614.337 627.931 610.74 628.137 607.149 627.98Z" fill="#474646"></path> <path d="M539.876 906.59C539.876 906.59 575.036 901.82 572.146 916.53C569.256 931.24 523.267 922.17 521.397 918.91C519.527 915.65 520.256 907.64 520.256 907.64L539.876 906.59Z" fill="#FF0000"></path> <path fill-rule="evenodd" clip-rule="evenodd" d="M539.83 906.091L539.836 906.09L539.913 906.08C539.981 906.072 540.08 906.059 540.21 906.043C540.469 906.011 540.848 905.967 541.329 905.916C542.29 905.814 543.659 905.684 545.292 905.575C548.555 905.357 552.886 905.219 557.133 905.545C561.366 905.869 565.58 906.658 568.568 908.334C570.069 909.176 571.288 910.258 572.03 911.643C572.777 913.035 573.018 914.689 572.637 916.626C571.855 920.605 568.173 922.872 563.38 924.051C558.559 925.236 552.421 925.376 546.355 924.957C540.28 924.537 534.24 923.553 529.595 922.468C527.274 921.926 525.291 921.356 523.823 920.815C523.09 920.545 522.473 920.278 522.002 920.02C521.767 919.89 521.559 919.758 521.388 919.623C521.222 919.492 521.066 919.338 520.963 919.158C520.451 918.266 520.134 917.084 519.936 915.852C519.736 914.612 519.651 913.281 519.625 912.062C519.599 910.843 519.633 909.727 519.672 908.917C519.692 908.512 519.714 908.182 519.73 907.954C519.738 907.839 519.745 907.75 519.75 907.689L519.756 907.619L519.758 907.601L519.759 907.594C519.759 907.594 519.759 907.594 520.257 907.639L519.759 907.594L519.798 907.163L539.83 906.091ZM520.721 908.115C520.706 908.331 520.688 908.62 520.671 908.966C520.632 909.76 520.6 910.851 520.625 912.041C520.651 913.233 520.734 914.515 520.923 915.694C521.114 916.881 521.407 917.923 521.83 918.66C521.844 918.684 521.891 918.746 522.009 918.839C522.122 918.928 522.279 919.031 522.484 919.143C522.894 919.368 523.459 919.616 524.168 919.877C525.584 920.399 527.524 920.958 529.823 921.494C534.417 922.567 540.405 923.543 546.424 923.959C552.449 924.376 558.468 924.229 563.141 923.08C567.842 921.924 570.993 919.808 571.656 916.433C571.998 914.692 571.772 913.277 571.149 912.115C570.522 910.945 569.468 909.986 568.079 909.206C565.287 907.64 561.253 906.863 557.057 906.542C552.876 906.221 548.597 906.356 545.358 906.573C543.74 906.681 542.385 906.809 541.435 906.91C540.959 906.961 540.586 907.005 540.331 907.036C540.204 907.051 540.107 907.064 540.041 907.072L539.968 907.082L539.949 907.084L539.944 907.085C539.944 907.085 539.944 907.085 539.876 906.589L539.944 907.085L539.924 907.088L520.721 908.115Z" fill="#474646"></path> <path d="M554.698 906.648C553.577 909.3 552.748 912.066 552.228 914.898L554.698 906.648Z" fill="white"></path> <path fill-rule="evenodd" clip-rule="evenodd" d="M554.893 906.188C554.638 906.08 554.345 906.199 554.238 906.453C553.102 909.139 552.263 911.94 551.736 914.808C551.686 915.079 551.866 915.34 552.138 915.39C552.409 915.44 552.67 915.26 552.72 914.988C553.233 912.192 554.051 909.461 555.159 906.843C555.266 906.589 555.147 906.295 554.893 906.188Z" fill="#474646"></path> <path d="M550.104 906.479C548.988 909.136 548.16 911.905 547.634 914.739L550.104 906.479Z" fill="white"></path> <path fill-rule="evenodd" clip-rule="evenodd" d="M550.302 906.018C550.047 905.911 549.754 906.031 549.647 906.286C548.517 908.976 547.679 911.779 547.147 914.648C547.096 914.919 547.275 915.18 547.547 915.231C547.818 915.281 548.079 915.102 548.13 914.83C548.649 912.032 549.467 909.297 550.569 906.673C550.676 906.418 550.556 906.125 550.302 906.018Z" fill="#474646"></path> <path d="M545.288 906.309C544.167 908.965 543.339 911.734 542.818 914.569L545.288 906.309Z" fill="white"></path> <path fill-rule="evenodd" clip-rule="evenodd" d="M545.482 905.848C545.228 905.74 544.935 905.859 544.827 906.114C543.692 908.803 542.854 911.607 542.326 914.478C542.276 914.75 542.456 915.01 542.728 915.06C542.999 915.11 543.26 914.93 543.31 914.659C543.824 911.859 544.642 909.125 545.749 906.503C545.856 906.248 545.737 905.955 545.482 905.848Z" fill="#474646"></path> <path d="M492.546 905.46C492.546 905.46 528.026 905.23 523.276 919.46C518.526 933.69 474.076 918.79 472.646 915.32C471.216 911.85 472.956 904 472.956 904L492.546 905.46Z" fill="#FF0000"></path> <path fill-rule="evenodd" clip-rule="evenodd" d="M472.468 903.892L472.956 904C472.468 903.892 472.468 903.892 472.468 903.892L472.466 903.899L472.462 903.917L472.448 903.985C472.435 904.045 472.417 904.133 472.394 904.245C472.349 904.47 472.285 904.794 472.214 905.193C472.072 905.991 471.897 907.093 471.768 908.306C471.638 909.517 471.553 910.848 471.592 912.103C471.63 913.349 471.793 914.561 472.184 915.511C472.263 915.702 472.398 915.875 472.546 916.027C472.697 916.182 472.887 916.34 473.103 916.498C473.537 916.815 474.114 917.159 474.806 917.521C476.192 918.246 478.085 919.065 480.317 919.9C484.784 921.572 490.648 923.322 496.618 924.518C502.581 925.712 508.686 926.36 513.619 925.801C518.523 925.246 522.465 923.468 523.75 919.618C524.376 917.745 524.349 916.073 523.787 914.595C523.228 913.126 522.158 911.896 520.777 910.868C518.029 908.821 513.95 907.499 509.794 906.634C505.624 905.767 501.311 905.349 498.046 905.147C496.413 905.047 495.039 905 494.073 904.978C493.589 904.967 493.208 904.963 492.947 904.961C492.816 904.96 492.716 904.96 492.648 904.96H492.57H492.564L472.562 903.469L472.468 903.892ZM492.546 905.46C492.549 905.96 492.549 905.96 492.55 905.96H492.555H492.573H492.648C492.714 905.96 492.812 905.96 492.94 905.961C493.196 905.963 493.573 905.967 494.05 905.978C495.006 905.999 496.366 906.046 497.985 906.146C501.224 906.346 505.485 906.759 509.591 907.613C513.711 908.47 517.612 909.758 520.18 911.67C521.457 912.622 522.38 913.709 522.852 914.951C523.321 916.184 523.364 917.617 522.802 919.302C521.712 922.567 518.316 924.263 513.506 924.808C508.724 925.349 502.737 924.723 496.814 923.537C490.899 922.353 485.086 920.617 480.668 918.964C478.457 918.137 476.606 917.334 475.269 916.635C474.6 916.285 474.071 915.967 473.693 915.691C473.505 915.553 473.363 915.432 473.262 915.329C473.157 915.222 473.119 915.155 473.109 915.13C472.785 914.344 472.628 913.274 472.591 912.072C472.554 910.879 472.635 909.597 472.762 908.412C472.889 907.229 473.059 906.151 473.199 905.369C473.26 905.028 473.314 904.743 473.356 904.531L492.529 905.96H492.55L492.546 905.46Z" fill="#474646"></path> <path d="M507.237 907.408C505.787 909.897 504.61 912.536 503.727 915.278L507.237 907.408Z" fill="white"></path> <path fill-rule="evenodd" clip-rule="evenodd" d="M507.489 906.976C507.25 906.837 506.944 906.918 506.805 907.156C505.337 909.676 504.145 912.348 503.251 915.125C503.167 915.388 503.311 915.669 503.574 915.754C503.837 915.839 504.118 915.694 504.203 915.431C505.075 912.723 506.237 910.117 507.669 907.66C507.808 907.421 507.727 907.115 507.489 906.976Z" fill="#474646"></path> <path d="M502.706 906.658C501.258 909.148 500.081 911.787 499.196 914.528L502.706 906.658Z" fill="white"></path> <path fill-rule="evenodd" clip-rule="evenodd" d="M502.957 906.226C502.719 906.087 502.412 906.168 502.274 906.406C500.807 908.928 499.616 911.599 498.72 914.374C498.635 914.637 498.779 914.919 499.042 915.004C499.305 915.089 499.587 914.944 499.672 914.682C500.546 911.974 501.708 909.368 503.138 906.909C503.277 906.671 503.196 906.364 502.957 906.226Z" fill="#474646"></path> <path d="M497.956 905.869C496.508 908.359 495.331 910.997 494.446 913.739L497.956 905.869Z" fill="white"></path> <path fill-rule="evenodd" clip-rule="evenodd" d="M498.207 905.437C497.969 905.298 497.662 905.379 497.524 905.617C496.057 908.139 494.866 910.81 493.97 913.585C493.885 913.848 494.029 914.13 494.292 914.215C494.555 914.3 494.837 914.155 494.922 913.893C495.796 911.185 496.958 908.579 498.388 906.12C498.527 905.881 498.446 905.575 498.207 905.437Z" fill="#474646"></path> <path d="M531.748 480.379C511.103 480.379 494.368 474.841 494.368 468.009C494.368 461.178 511.103 455.639 531.748 455.639C552.392 455.639 569.128 461.178 569.128 468.009C569.128 474.841 552.392 480.379 531.748 480.379Z" fill="#474646"></path> </svg> 