<?xml version="1.0" encoding="UTF-8"?> <svg xmlns="http://www.w3.org/2000/svg" width="865" height="740" viewBox="0 0 865 740" fill="none"> <path d="M857.391 563.463C861.332 546.569 850.831 529.679 833.937 525.739C817.043 521.798 800.154 532.299 796.213 549.192C792.273 566.086 802.773 582.976 819.667 586.916C836.561 590.857 853.45 580.356 857.391 563.463Z" fill="#F6463A"></path> <path d="M812.599 530.941H814.859V528.681H812.599V530.941Z" fill="#474646"></path> <path d="M812.599 517.25H814.859V514.99H812.599V517.25Z" fill="#474646"></path> <path d="M812.599 503.561H814.859V501.301H812.599V503.561Z" fill="#474646"></path> <path d="M800.197 530.941H802.457V528.681H800.197V530.941Z" fill="#474646"></path> <path d="M800.197 517.25H802.457V514.99H800.197V517.25Z" fill="#474646"></path> <path d="M800.197 503.561H802.457V501.301H800.197V503.561Z" fill="#474646"></path> <path d="M787.81 530.941H790.07V528.681H787.81V530.941Z" fill="#474646"></path> <path d="M787.81 517.25H790.07V514.99H787.81V517.25Z" fill="#474646"></path> <path d="M787.81 503.561H790.07V501.301H787.81V503.561Z" fill="#474646"></path> <path d="M775.408 530.941H777.668V528.681H775.408V530.941Z" fill="#474646"></path> <path d="M775.408 517.25H777.668V514.99H775.408V517.25Z" fill="#474646"></path> <path d="M775.408 503.561H777.668V501.301H775.408V503.561Z" fill="#474646"></path> <path d="M763.01 530.941H765.27V528.681H763.01V530.941Z" fill="#474646"></path> <path d="M763.01 517.25H765.27V514.99H763.01V517.25Z" fill="#474646"></path> <path d="M763.01 503.561H765.27V501.301H763.01V503.561Z" fill="#474646"></path> <path d="M750.619 530.941H752.879V528.681H750.619V530.941Z" fill="#474646"></path> <path d="M750.619 517.25H752.879V514.99H750.619V517.25Z" fill="#474646"></path> <path d="M750.619 503.561H752.879V501.301H750.619V503.561Z" fill="#474646"></path> <path d="M738.217 530.941H740.477V528.681H738.217V530.941Z" fill="#474646"></path> <path d="M738.217 517.25H740.477V514.99H738.217V517.25Z" fill="#474646"></path> <path d="M738.217 503.561H740.477V501.301H738.217V503.561Z" fill="#474646"></path> <path d="M725.818 530.941H728.078V528.681H725.818V530.941Z" fill="#474646"></path> <path d="M725.818 517.25H728.078V514.99H725.818V517.25Z" fill="#474646"></path> <path d="M725.818 503.561H728.078V501.301H725.818V503.561Z" fill="#474646"></path> <path d="M713.427 530.941H715.688V528.681H713.427V530.941Z" fill="#474646"></path> <path d="M713.427 517.25H715.688V514.99H713.427V517.25Z" fill="#474646"></path> <path d="M713.427 503.561H715.688V501.301H713.427V503.561Z" fill="#474646"></path> <path d="M701.029 530.941H703.289V528.681H701.029V530.941Z" fill="#474646"></path> <path d="M701.029 517.25H703.289V514.99H701.029V517.25Z" fill="#474646"></path> <path d="M701.029 503.561H703.289V501.301H701.029V503.561Z" fill="#474646"></path> <path d="M688.627 530.941H690.887V528.681H688.627V530.941Z" fill="#474646"></path> <path d="M688.627 517.25H690.887V514.99H688.627V517.25Z" fill="#474646"></path> <path d="M688.627 503.561H690.887V501.301H688.627V503.561Z" fill="#474646"></path> <path d="M690.89 198.291C745.494 198.291 789.76 154.025 789.76 99.4208C789.76 44.8164 745.494 0.550781 690.89 0.550781C636.285 0.550781 592.02 44.8164 592.02 99.4208C592.02 154.025 636.285 198.291 690.89 198.291Z" stroke="#F6463A" stroke-miterlimit="10"></path> <path d="M694.234 237.447C697.363 218.086 684.205 199.855 664.844 196.726C645.483 193.597 627.252 206.755 624.123 226.116C620.994 245.477 634.152 263.708 653.513 266.837C672.874 269.967 691.105 256.808 694.234 237.447Z" stroke="#474646" stroke-width="1.00285" stroke-miterlimit="10"></path> <path d="M668.114 219.222C672.556 200.177 660.719 181.137 641.673 176.694C622.628 172.252 603.588 184.09 599.145 203.135C594.703 222.18 606.541 241.22 625.586 245.663C644.631 250.105 663.671 238.268 668.114 219.222Z" fill="#474646"></path> <path d="M491.799 739.69C593.061 739.69 675.149 725.453 675.149 707.89C675.149 690.327 593.061 676.09 491.799 676.09C390.538 676.09 308.449 690.327 308.449 707.89C308.449 725.453 390.538 739.69 491.799 739.69Z" fill="#EEEEEE"></path> <path d="M152.122 352.893C218.073 344.538 264.42 281.587 255.641 212.287C246.862 142.988 186.281 93.5834 120.33 101.938C54.3782 110.293 8.03092 173.244 16.81 242.544C25.5891 311.843 86.1701 361.248 152.122 352.893Z" fill="white" stroke="#474646" stroke-miterlimit="10"></path> <path d="M161.15 352.13C222.159 344.401 264.617 282.881 255.983 214.722C247.348 146.562 190.89 97.5736 129.881 105.302C68.8718 113.031 26.4139 174.551 35.0486 242.711C43.6833 310.87 100.141 359.859 161.15 352.13Z" fill="white" stroke="#474646" stroke-miterlimit="10"></path> <path d="M157.81 328.5C207.767 321.94 241.999 268.898 234.269 210.029C226.539 151.159 179.773 108.753 129.816 115.313C79.858 121.873 45.6261 174.915 53.3565 233.785C61.0869 292.655 107.852 335.06 157.81 328.5Z" fill="#474646"></path> <path d="M154.109 304.101C186.03 300.057 207.716 263.698 202.547 222.89C197.377 182.082 167.309 152.279 135.388 156.322C103.467 160.366 81.7807 196.726 86.9505 237.534C92.1202 278.342 122.188 308.145 154.109 304.101Z" fill="white"></path> <path d="M153.072 276.77C171.809 273.25 183.098 249.636 178.287 224.028C173.476 198.419 154.386 180.512 135.649 184.033C116.912 187.553 105.623 211.166 110.434 236.775C115.245 262.384 134.334 280.29 153.072 276.77Z" fill="#474646"></path> <path d="M207.04 132.42L192.66 141.72L185.66 156.12L200.68 155.26L215.59 145.62L201.22 146.06L207.04 132.42Z" fill="white" stroke="#474646" stroke-miterlimit="10"></path> <path d="M160.918 173.561L185.658 156.121" stroke="#474646" stroke-miterlimit="10"></path> <path d="M163.727 176.361L158.307 168.701L155.387 175.701L163.727 176.361Z" fill="#474646"></path> <path d="M219.238 233.17L204.858 242.48L197.848 256.88L212.878 256.02L227.778 246.38L213.408 246.81L219.238 233.17Z" fill="white" stroke="#474646" stroke-miterlimit="10"></path> <path d="M173.117 274.321L197.847 256.881" stroke="#474646" stroke-miterlimit="10"></path> <path d="M175.918 277.121L170.498 269.461L167.578 276.451L175.918 277.121Z" fill="#474646"></path> <path d="M234.368 182.801L219.988 192.101L212.988 206.501L228.008 205.641L242.908 196.001L228.548 196.431L234.368 182.801Z" fill="white" stroke="#474646" stroke-miterlimit="10"></path> <path d="M188.25 223.94L212.99 206.5" stroke="#474646" stroke-miterlimit="10"></path> <path d="M191.059 226.74L185.639 219.08L182.719 226.07L191.059 226.74Z" fill="#474646"></path> <path d="M318.449 310.83C318.449 310.83 347.349 359 356.369 363.09C367.829 368.3 424.059 386.91 424.059 386.91L431.859 335.44C431.859 335.44 393.339 353.44 378.249 340.97C367.719 332.27 328.989 304.92 328.989 304.92" fill="white"></path> <path d="M318.449 310.83C318.449 310.83 347.349 359 356.369 363.09C367.829 368.3 424.059 386.91 424.059 386.91L431.859 335.44C431.859 335.44 393.339 353.44 378.249 340.97C367.719 332.27 328.989 304.92 328.989 304.92" stroke="#474646" stroke-miterlimit="10"></path> <path d="M447.75 466.371C447.75 466.371 441.84 624.141 473.48 689.971C472.815 691.913 471.673 693.656 470.157 695.04C468.642 696.424 466.803 697.404 464.81 697.891C457.87 699.651 497.04 698.401 499.3 691.691C499.3 691.691 511.5 505.181 519.72 482.111" fill="white"></path> <path d="M447.75 466.371C447.75 466.371 441.84 624.141 473.48 689.971C472.815 691.913 471.673 693.656 470.157 695.04C468.642 696.424 466.803 697.404 464.81 697.891C457.87 699.651 497.04 698.401 499.3 691.691C499.3 691.691 511.5 505.181 519.72 482.111" stroke="#474646" stroke-linecap="round" stroke-linejoin="round"></path> <path d="M626.75 502.991C626.75 502.991 587.75 520.251 549.34 536.331C536.16 509.071 524.97 484.621 523.47 477.161C523.47 477.161 488.25 451.101 467.16 496.231C467.16 496.231 513.16 572.231 515.39 576.311C521.93 588.311 533.67 596.431 546.69 592.161C554.11 589.731 620.12 540.661 634.69 521.071C636.24 520.838 637.823 520.996 639.296 521.533C640.769 522.069 642.083 522.966 643.12 524.141C646.8 528.211 632.09 502.151 626.75 502.991Z" fill="white" stroke="#474646" stroke-linecap="round" stroke-linejoin="round"></path> <path d="M448.308 327.032C440.858 330.082 445.208 329.282 437.758 332.332C454.588 383.642 449.168 446.212 451.298 501.402L521.838 498.522C527.048 435.802 500.888 385.352 520.538 327.022C507.128 332.442 461.718 321.612 448.308 327.022" fill="#FF0000"></path> <path d="M448.308 327.032C440.858 330.082 445.208 329.282 437.758 332.332C454.588 383.642 449.168 446.212 451.298 501.402L521.838 498.522C527.048 435.802 500.888 385.352 520.538 327.022C507.128 332.442 461.718 321.612 448.308 327.022" stroke="#474646" stroke-miterlimit="10"></path> <path d="M507.7 319.321C503.7 303.501 507.7 266.601 507.7 266.601C509.008 263.513 510.013 260.304 510.7 257.021C515.07 236.461 506.44 217.211 491.43 214.021C476.42 210.831 460.71 224.901 456.34 245.461C451.97 266.021 477.59 288.831 478.55 288.831L478.33 289.001C477.81 323.431 450 326.351 450 326.351C460.72 352.171 517.69 344.931 517.69 344.931C517.69 344.931 511.66 335.131 507.7 319.321Z" fill="white" stroke="#474646" stroke-linecap="round" stroke-linejoin="round"></path> <path d="M460.66 218.45C460.53 215.45 460.43 212.34 461.66 209.61C462.89 206.88 465.93 204.72 468.82 205.5C471.02 206.1 472.48 208.13 474.32 209.5C478.63 212.69 484.71 211.93 489.7 210C494.69 208.07 499.36 205.1 504.63 204.16C509.9 203.22 516.29 205.11 518.16 210.16C519.49 213.71 518.23 217.87 519.71 221.35C520.96 224.28 523.86 226.1 525.98 228.48C528.1 230.86 529.31 234.87 526.98 237.04C525.35 238.56 514.25 245.63 512.24 244.68C510.23 243.73 513.33 239.63 511.41 238.5C508.1 236.5 507.85 231.23 504.02 230.82C499.42 230.327 494.807 230.034 490.18 229.94C478.85 229.69 467.53 230.61 456.24 231.53C452.81 231.81 449.24 232.08 445.99 231.12C442.74 230.16 439.59 227.69 438.92 224.31C438.04 219.93 441.6 215.64 445.8 214.11C450 212.58 454.63 213.11 459.07 213.65" fill="#474646"></path> <path d="M491.797 229.93C491.797 229.93 504.637 250.23 502.607 261.66C502.607 261.66 508.267 230.04 513.907 228.57" fill="#474646"></path> <path d="M469.997 473.241C467.877 463.241 463.607 453.911 460.477 444.241C447.657 404.481 455.417 362.891 462.387 321.701C449.527 328.311 434.527 328.931 426.967 341.251C423.297 347.251 418.327 357.991 416.637 364.821C410.927 387.971 408.547 412.191 412.317 435.731C415.517 455.621 422.997 474.531 430.427 493.251C432.427 498.251 435.117 503.891 440.347 505.101C442.187 505.416 444.067 505.416 445.907 505.101L466.447 502.851C471.877 494.211 472.127 483.201 469.997 473.241Z" fill="white" stroke="#474646" stroke-miterlimit="10"></path> <path d="M495.53 469.321C497.66 459.321 501.93 449.991 505.05 440.321C517.87 400.561 514.59 356.321 507.62 315.111C520.47 321.721 533.96 328.901 541.51 341.231C545.19 347.231 547.2 354.081 548.89 360.901C554.6 384.051 556.99 408.271 553.21 431.811C550.01 451.701 542.53 470.611 535.11 489.341C533.11 494.341 530.41 499.981 525.18 501.181C523.34 501.491 521.461 501.491 519.62 501.181L499.08 498.931C493.65 490.301 493.4 479.291 495.53 469.321Z" fill="white" stroke="#474646" stroke-miterlimit="10"></path> <path d="M472.849 690.521C472.849 690.521 426.709 684.611 429.849 699.161C432.989 713.711 494.049 706.401 496.659 703.261C499.269 700.121 498.659 692.261 498.659 692.261L472.849 690.521Z" fill="white" stroke="#474646" stroke-linecap="round" stroke-linejoin="round"></path> <path d="M453.309 690.051C454.636 692.64 455.602 695.399 456.179 698.251L453.309 690.051Z" fill="white"></path> <path d="M453.309 690.051C454.636 692.64 455.602 695.399 456.179 698.251" stroke="#474646" stroke-linecap="round" stroke-linejoin="round"></path> <path d="M459.367 690.051C460.695 692.64 461.661 695.399 462.237 698.251L459.367 690.051Z" fill="white"></path> <path d="M459.367 690.051C460.695 692.64 461.661 695.399 462.237 698.251" stroke="#474646" stroke-linecap="round" stroke-linejoin="round"></path> <path d="M465.727 690.051C467.05 692.642 468.015 695.4 468.597 698.251L465.727 690.051Z" fill="white"></path> <path d="M465.727 690.051C467.05 692.642 468.015 695.4 468.597 698.251" stroke="#474646" stroke-linecap="round" stroke-linejoin="round"></path> <path d="M634.628 529.16C634.628 529.16 659.348 568.57 668.628 556.92C677.908 545.27 633.488 502.71 629.408 502.68C625.328 502.65 619.598 508.11 619.598 508.11L634.628 529.16Z" fill="white" stroke="#474646" stroke-linecap="round" stroke-linejoin="round"></path> <path d="M646.68 544.551C647.84 541.885 649.357 539.388 651.19 537.131L646.68 544.551Z" fill="white"></path> <path d="M646.68 544.551C647.84 541.885 649.357 539.388 651.19 537.131" stroke="#474646" stroke-linecap="round" stroke-linejoin="round"></path> <path d="M642.84 539.83C643.996 537.162 645.513 534.665 647.35 532.41L642.84 539.83Z" fill="white"></path> <path d="M642.84 539.83C643.996 537.162 645.513 534.665 647.35 532.41" stroke="#474646" stroke-linecap="round" stroke-linejoin="round"></path> <path d="M638.797 534.961C639.955 532.294 641.472 529.797 643.307 527.541L638.797 534.961Z" fill="white"></path> <path d="M638.797 534.961C639.955 532.294 641.472 529.797 643.307 527.541" stroke="#474646" stroke-linecap="round" stroke-linejoin="round"></path> <path d="M404.368 419.111C404.508 419.111 466.368 415.551 480.688 408.351C491.938 402.681 531.688 353.211 531.688 353.211C531.688 353.211 537.778 342.661 543.068 346.881C551.978 353.981 555.848 381.531 551.168 391.381C542.858 408.901 497.028 434.111 489.728 435.561C461.728 441.111 403.728 427.361 403.668 427.341" fill="white"></path> <path d="M404.368 419.111C404.508 419.111 466.368 415.551 480.688 408.351C491.938 402.681 531.688 353.211 531.688 353.211C531.688 353.211 537.778 342.661 543.068 346.881C551.978 353.981 555.848 381.531 551.168 391.381C542.858 408.901 497.028 434.111 489.728 435.561C461.728 441.111 403.728 427.361 403.668 427.341" stroke="#474646" stroke-miterlimit="10"></path> <path d="M404.579 418.951C404.579 418.951 392.689 410.061 388.349 411.061C386.517 411.548 384.748 412.25 383.079 413.151L382.149 413.651C379.639 415.411 377.309 420.311 378.649 423.481C382.398 424.944 386.31 425.951 390.299 426.481C394.802 427.198 399.367 427.439 403.919 427.201L404.579 418.951Z" fill="white" stroke="#474646" stroke-linecap="round" stroke-linejoin="round"></path> <path d="M329.998 307.551C328.998 304.551 322.108 288.871 313.348 291.611C310.348 291.851 305.798 294.901 305.348 298.311C309.458 303.881 318.738 311.091 325.258 314.311L329.998 307.551Z" fill="white" stroke="#474646" stroke-linecap="round" stroke-linejoin="round"></path> <path d="M351.158 292.901L334.038 292.551L320.168 300.561L333.098 308.261L350.838 308.631L338.698 300.941L351.158 292.901Z" fill="white" stroke="#474646" stroke-miterlimit="10"></path> <path d="M289.91 301.151L320.17 300.561" stroke="#474646" stroke-miterlimit="10"></path> <path d="M290.669 305.03L290.459 295.66L284.129 299.81L290.669 305.03Z" fill="#474646"></path> <path d="M782.78 257.241C784.265 257.241 785.47 256.005 785.47 254.481C785.47 252.956 784.265 251.721 782.78 251.721C781.294 251.721 780.09 252.956 780.09 254.481C780.09 256.005 781.294 257.241 782.78 257.241Z" fill="#FF0000"></path> <path d="M782.777 293.171C782.228 293.187 781.686 293.039 781.222 292.745C780.757 292.451 780.391 292.025 780.17 291.522C779.949 291.018 779.884 290.461 779.982 289.92C780.08 289.379 780.337 288.88 780.721 288.486C781.104 288.092 781.597 287.822 782.135 287.71C782.673 287.598 783.232 287.649 783.741 287.857C784.25 288.065 784.685 288.42 784.991 288.877C785.297 289.334 785.459 289.872 785.457 290.421C785.465 291.141 785.188 291.834 784.686 292.35C784.183 292.865 783.497 293.161 782.777 293.171Z" fill="#474646"></path> <path d="M782.78 329.11C784.265 329.11 785.47 327.874 785.47 326.35C785.47 324.825 784.265 323.59 782.78 323.59C781.294 323.59 780.09 324.825 780.09 326.35C780.09 327.874 781.294 329.11 782.78 329.11Z" fill="#474646"></path> <path d="M782.78 365.051C784.265 365.051 785.47 363.816 785.47 362.291C785.47 360.767 784.265 359.531 782.78 359.531C781.294 359.531 780.09 360.767 780.09 362.291C780.09 363.816 781.294 365.051 782.78 365.051Z" fill="#474646"></path> <path d="M748.049 257.241C749.535 257.241 750.739 256.005 750.739 254.481C750.739 252.956 749.535 251.721 748.049 251.721C746.564 251.721 745.359 252.956 745.359 254.481C745.359 256.005 746.564 257.241 748.049 257.241Z" fill="#474646"></path> <path d="M748.049 293.171C747.5 293.185 746.959 293.035 746.496 292.74C746.032 292.445 745.668 292.018 745.448 291.515C745.229 291.011 745.165 290.454 745.264 289.914C745.363 289.373 745.622 288.875 746.006 288.482C746.39 288.09 746.882 287.821 747.42 287.709C747.958 287.598 748.517 287.65 749.025 287.858C749.533 288.067 749.968 288.422 750.273 288.878C750.578 289.335 750.741 289.872 750.739 290.421C750.744 290.779 750.679 291.134 750.546 291.466C750.413 291.798 750.216 292.101 749.966 292.357C749.716 292.612 749.418 292.816 749.089 292.956C748.76 293.096 748.406 293.169 748.049 293.171Z" fill="#474646"></path> <path d="M748.049 329.11C749.535 329.11 750.739 327.874 750.739 326.35C750.739 324.825 749.535 323.59 748.049 323.59C746.564 323.59 745.359 324.825 745.359 326.35C745.359 327.874 746.564 329.11 748.049 329.11Z" fill="#474646"></path> <path d="M748.049 365.051C749.535 365.051 750.739 363.816 750.739 362.291C750.739 360.767 749.535 359.531 748.049 359.531C746.564 359.531 745.359 360.767 745.359 362.291C745.359 363.816 746.564 365.051 748.049 365.051Z" fill="#474646"></path> <path d="M713.327 257.241C714.812 257.241 716.017 256.005 716.017 254.481C716.017 252.956 714.812 251.721 713.327 251.721C711.841 251.721 710.637 252.956 710.637 254.481C710.637 256.005 711.841 257.241 713.327 257.241Z" fill="#474646"></path> <path d="M713.33 293.171C712.781 293.185 712.24 293.035 711.777 292.74C711.314 292.445 710.949 292.018 710.73 291.515C710.51 291.011 710.446 290.454 710.545 289.914C710.645 289.373 710.903 288.875 711.287 288.482C711.671 288.09 712.164 287.821 712.701 287.709C713.239 287.598 713.798 287.65 714.306 287.858C714.815 288.067 715.249 288.422 715.554 288.878C715.86 289.335 716.022 289.872 716.02 290.421C716.025 290.779 715.96 291.134 715.827 291.466C715.695 291.798 715.498 292.101 715.248 292.357C714.998 292.612 714.699 292.816 714.37 292.956C714.041 293.096 713.688 293.169 713.33 293.171Z" fill="#474646"></path> <path d="M713.327 329.11C714.812 329.11 716.017 327.874 716.017 326.35C716.017 324.825 714.812 323.59 713.327 323.59C711.841 323.59 710.637 324.825 710.637 326.35C710.637 327.874 711.841 329.11 713.327 329.11Z" fill="#474646"></path> <path d="M713.327 365.051C714.812 365.051 716.017 363.816 716.017 362.291C716.017 360.767 714.812 359.531 713.327 359.531C711.841 359.531 710.637 360.767 710.637 362.291C710.637 363.816 711.841 365.051 713.327 365.051Z" fill="#474646"></path> <path d="M678.608 257.241C680.094 257.241 681.298 256.005 681.298 254.481C681.298 252.956 680.094 251.721 678.608 251.721C677.122 251.721 675.918 252.956 675.918 254.481C675.918 256.005 677.122 257.241 678.608 257.241Z" fill="#474646"></path> <path d="M678.609 293.171C678.06 293.187 677.518 293.039 677.054 292.745C676.589 292.451 676.223 292.025 676.002 291.522C675.781 291.018 675.716 290.461 675.814 289.92C675.912 289.379 676.169 288.88 676.553 288.486C676.936 288.092 677.429 287.822 677.967 287.71C678.505 287.598 679.065 287.649 679.573 287.857C680.082 288.065 680.517 288.42 680.823 288.877C681.129 289.334 681.291 289.872 681.29 290.421C681.298 291.141 681.02 291.834 680.518 292.35C680.015 292.865 679.329 293.161 678.609 293.171Z" fill="#474646"></path> <path d="M678.608 329.11C680.094 329.11 681.298 327.874 681.298 326.35C681.298 324.825 680.094 323.59 678.608 323.59C677.122 323.59 675.918 324.825 675.918 326.35C675.918 327.874 677.122 329.11 678.608 329.11Z" fill="#474646"></path> <path d="M678.608 365.051C680.094 365.051 681.298 363.816 681.298 362.291C681.298 360.767 680.094 359.531 678.608 359.531C677.122 359.531 675.918 360.767 675.918 362.291C675.918 363.816 677.122 365.051 678.608 365.051Z" fill="#474646"></path> </svg> 